<svg xmlns="http://www.w3.org/2000/svg" xmlns:xlink="http://www.w3.org/1999/xlink" width="1024" zoomAndPan="magnify" viewBox="0 0 768 767.999994" height="1024" preserveAspectRatio="xMidYMid meet" version="1.0"><defs><clipPath id="e74eeaefcb"><path d="M 222 76.800781 L 547 76.800781 L 547 530 L 222 530 Z M 222 76.800781 " clip-rule="nonzero"/></clipPath><clipPath id="f7a7fbd7a2"><path d="M 197.375 497 L 570.875 497 L 570.875 691.050781 L 197.375 691.050781 Z M 197.375 497 " clip-rule="nonzero"/></clipPath></defs><rect x="-76.8" width="921.6" fill="#ffffff" y="-76.799999" height="921.599993" fill-opacity="1"/><rect x="-76.8" width="921.6" fill="#ffffff" y="-76.799999" height="921.599993" fill-opacity="1"/><g clip-path="url(#e74eeaefcb)"><path fill="#f4f5f7" d="M 329.476562 194.957031 C 329.476562 164.808594 353.90625 140.382812 384.050781 140.382812 C 414.214844 140.382812 438.640625 164.808594 438.640625 194.957031 C 438.640625 225.117188 414.214844 249.550781 384.050781 249.550781 C 353.90625 249.550781 329.476562 225.117188 329.476562 194.957031 Z M 546.136719 238.875 C 546.136719 149.390625 473.570312 76.820312 384.054688 76.820312 C 294.570312 76.820312 222.003906 149.390625 222.003906 238.875 C 222.003906 328.390625 384.054688 529.402344 384.054688 529.402344 C 384.054688 529.402344 546.136719 328.390625 546.136719 238.875 " fill-opacity="1" fill-rule="nonzero"/></g><path fill="#f4f5f7" d="M 336.085938 544.019531 C 343.113281 541.167969 346.5 533.15625 343.644531 526.121094 C 340.808594 519.09375 332.753906 515.699219 325.746094 518.570312 C 298.078125 529.792969 282.207031 548.109375 282.207031 568.816406 C 282.207031 602.945312 326.953125 629.679688 384.074219 629.679688 C 441.191406 629.679688 485.933594 602.945312 485.933594 568.816406 C 485.933594 548.109375 470.058594 529.792969 442.390625 518.570312 C 435.382812 515.699219 427.34375 519.09375 424.5 526.121094 C 421.640625 533.15625 425.023438 541.167969 432.050781 544.019531 C 448.335938 550.632812 458.457031 560.132812 458.457031 568.816406 C 458.457031 584.574219 426.644531 602.210938 384.074219 602.210938 C 341.496094 602.210938 309.675781 584.574219 309.675781 568.816406 C 309.675781 560.132812 319.796875 550.632812 336.085938 544.019531 " fill-opacity="1" fill-rule="nonzero"/><g clip-path="url(#f7a7fbd7a2)"><path fill="#f4f5f7" d="M 493.347656 498.863281 C 486.316406 496.03125 478.292969 499.394531 475.457031 506.4375 C 472.605469 513.46875 475.992188 521.480469 483.03125 524.335938 C 520.5625 539.558594 542.980469 562.273438 542.980469 585.113281 C 542.980469 627.714844 470.203125 663.695312 384.0625 663.695312 C 297.933594 663.695312 225.164062 627.714844 225.164062 585.113281 C 225.164062 562.273438 247.574219 539.546875 285.105469 524.335938 C 292.140625 521.480469 295.53125 513.46875 292.679688 506.4375 C 289.824219 499.394531 281.78125 496.03125 274.785156 498.863281 C 225.785156 518.730469 197.695312 550.167969 197.695312 585.113281 C 197.695312 644.585938 279.550781 691.171875 384.0625 691.171875 C 488.582031 691.171875 570.453125 644.585938 570.453125 585.113281 C 570.453125 550.179688 542.347656 518.742188 493.347656 498.863281 " fill-opacity="1" fill-rule="nonzero"/></g></svg>