<svg xmlns="http://www.w3.org/2000/svg" xmlns:xlink="http://www.w3.org/1999/xlink" width="1024" zoomAndPan="magnify" viewBox="0 0 768 767.999994" height="1024" preserveAspectRatio="xMidYMid meet" version="1.0"><defs><clipPath id="c2ef46e1bd"><path d="M 110.121094 110.121094 L 657.621094 110.121094 L 657.621094 657.621094 L 110.121094 657.621094 Z M 110.121094 110.121094 " clip-rule="nonzero"/></clipPath></defs><rect x="-76.8" width="921.6" fill="#ffffff" y="-76.799999" height="921.599993" fill-opacity="1"/><rect x="-76.8" width="921.6" fill="#ffffff" y="-76.799999" height="921.599993" fill-opacity="1"/><g clip-path="url(#c2ef46e1bd)"><path fill="#f4f5f7" d="M 237.269531 207.949219 C 221.023438 207.949219 207.914062 221.058594 207.914062 237.308594 C 207.914062 253.558594 221.023438 266.667969 237.269531 266.667969 C 253.519531 266.667969 266.628906 253.558594 266.628906 237.308594 C 266.628906 221.058594 253.519531 207.949219 237.269531 207.949219 Z M 237.269531 207.949219 C 221.023438 207.949219 207.914062 221.058594 207.914062 237.308594 C 207.914062 253.558594 221.023438 266.667969 237.269531 266.667969 C 253.519531 266.667969 266.628906 253.558594 266.628906 237.308594 C 266.628906 221.058594 253.519531 207.949219 237.269531 207.949219 Z M 237.269531 207.949219 C 221.023438 207.949219 207.914062 221.058594 207.914062 237.308594 C 207.914062 253.558594 221.023438 266.667969 237.269531 266.667969 C 253.519531 266.667969 266.628906 253.558594 266.628906 237.308594 C 266.628906 221.058594 253.519531 207.949219 237.269531 207.949219 Z M 579.613281 110.121094 L 188.375 110.121094 C 145.140625 110.121094 110.121094 145.140625 110.121094 188.375 L 110.121094 579.613281 C 110.121094 622.847656 145.140625 657.867188 188.375 657.867188 L 579.613281 657.867188 C 622.847656 657.867188 657.867188 622.847656 657.867188 579.613281 L 657.867188 188.375 C 657.867188 145.140625 622.847656 110.121094 579.613281 110.121094 Z M 618.757812 295.1875 L 421.167969 427.046875 C 409.445312 434.863281 394.363281 435.847656 381.65625 429.382812 L 324.546875 400.828125 C 300.296875 388.703125 270.757812 390.054688 247.859375 404.554688 L 149.230469 466.15625 L 149.230469 188.375 C 149.230469 166.867188 166.832031 149.265625 188.339844 149.265625 L 579.574219 149.265625 C 601.085938 149.265625 618.683594 166.867188 618.683594 188.375 L 618.683594 295.1875 Z M 618.757812 295.1875 " fill-opacity="1" fill-rule="nonzero"/></g></svg>