<svg xmlns="http://www.w3.org/2000/svg" xmlns:xlink="http://www.w3.org/1999/xlink" width="1024" zoomAndPan="magnify" viewBox="0 0 768 767.999994" height="1024" preserveAspectRatio="xMidYMid meet" version="1.0"><defs><clipPath id="1878c44963"><path d="M 76.800781 119.808594 L 691.050781 119.808594 L 691.050781 646 L 76.800781 646 Z M 76.800781 119.808594 " clip-rule="nonzero"/></clipPath></defs><rect x="-76.8" width="921.6" fill="#ffffff" y="-76.799999" height="921.599993" fill-opacity="1"/><rect x="-76.8" width="921.6" fill="#ffffff" y="-76.799999" height="921.599993" fill-opacity="1"/><g clip-path="url(#1878c44963)"><path fill="#f4f5f7" d="M 570.617188 527.066406 L 463.71875 639.722656 C 456.160156 647.640625 444.28125 648 436.363281 640.441406 C 433.84375 638.28125 432.046875 635.402344 431.324219 632.164062 C 429.527344 625.683594 430.964844 618.484375 435.644531 613.445312 C 430.964844 618.484375 429.527344 625.683594 431.324219 632.164062 C 429.527344 625.683594 430.964844 618.484375 435.644531 613.445312 C 430.964844 618.484375 429.527344 625.683594 431.324219 632.164062 C 429.527344 625.683594 430.964844 618.484375 435.644531 613.445312 Z M 431.324219 632.164062 L 391.734375 527.066406 L 149.144531 527.066406 C 129.347656 527.066406 111.351562 519.148438 98.035156 505.828125 C 85.078125 492.871094 76.800781 474.875 76.800781 454.71875 L 76.800781 192.335938 C 76.800781 172.539062 85.078125 154.542969 98.035156 141.226562 C 111.351562 128.269531 129.347656 119.992188 149.144531 119.992188 L 618.847656 119.992188 C 639 119.992188 656.996094 128.269531 669.953125 141.226562 C 682.914062 154.542969 691.191406 172.539062 691.191406 192.335938 L 691.191406 454.71875 C 691.191406 474.875 682.914062 492.871094 669.953125 505.828125 C 656.996094 519.148438 639 527.066406 618.847656 527.066406 L 570.617188 527.066406 Z M 186.21875 392.8125 C 175.417969 392.8125 166.78125 401.453125 166.78125 411.890625 C 166.78125 422.6875 175.417969 431.324219 186.21875 431.324219 L 579.613281 431.324219 C 590.050781 431.324219 598.691406 422.6875 598.691406 411.890625 C 598.691406 401.453125 590.050781 392.8125 579.613281 392.8125 Z M 186.21875 310.03125 C 175.417969 310.03125 166.78125 318.667969 166.78125 329.46875 C 166.78125 339.90625 175.417969 348.542969 186.21875 348.542969 L 582.132812 348.542969 C 592.570312 348.542969 601.210938 339.90625 601.210938 329.46875 C 601.210938 318.667969 592.570312 310.03125 582.132812 310.03125 Z M 186.21875 227.25 C 175.417969 227.25 166.78125 235.886719 166.78125 246.683594 C 166.78125 257.121094 175.417969 265.761719 186.21875 265.761719 L 463.359375 265.761719 C 473.796875 265.761719 482.433594 257.121094 482.433594 246.683594 C 482.433594 235.886719 473.796875 227.25 463.359375 227.25 Z M 186.21875 227.25 " fill-opacity="1" fill-rule="nonzero"/></g></svg>