<svg xmlns="http://www.w3.org/2000/svg" xmlns:xlink="http://www.w3.org/1999/xlink" width="1024" zoomAndPan="magnify" viewBox="0 0 768 767.999994" height="1024" preserveAspectRatio="xMidYMid meet" version="1.0"><defs><clipPath id="071da3e24c"><path d="M 103.257812 103.257812 L 665 103.257812 L 665 665 L 103.257812 665 Z M 103.257812 103.257812 " clip-rule="nonzero"/></clipPath></defs><rect x="-76.8" width="921.6" fill="#ffffff" y="-76.799999" height="921.599993" fill-opacity="1"/><rect x="-76.8" width="921.6" fill="#ffffff" y="-76.799999" height="921.599993" fill-opacity="1"/><path fill="#f4f5f7" d="M 396.070312 490.804688 L 388.132812 514.621094 L 411.949219 506.683594 L 592.710938 325.917969 L 576.832031 310.039062 Z M 396.070312 490.804688 " fill-opacity="1" fill-rule="nonzero"/><g clip-path="url(#071da3e24c)"><path fill="#f4f5f7" d="M 608.589844 103.257812 L 159.40625 103.257812 C 128.445312 103.257812 103.257812 128.445312 103.257812 159.40625 L 103.257812 608.589844 C 103.257812 639.550781 128.445312 664.738281 159.40625 664.738281 L 608.589844 664.738281 C 639.550781 664.738281 664.738281 639.550781 664.738281 608.589844 L 664.738281 159.40625 C 664.738281 128.445312 639.550781 103.257812 608.589844 103.257812 Z M 204.324219 193.09375 L 563.671875 193.09375 C 569.882812 193.09375 574.902344 198.125 574.902344 204.324219 C 574.902344 210.523438 569.882812 215.554688 563.671875 215.554688 L 204.324219 215.554688 C 198.125 215.554688 193.09375 210.523438 193.09375 204.324219 C 193.09375 198.125 198.125 193.09375 204.324219 193.09375 Z M 204.324219 260.472656 L 518.753906 260.472656 C 524.964844 260.472656 529.984375 265.503906 529.984375 271.703125 C 529.984375 277.902344 524.964844 282.933594 518.753906 282.933594 L 204.324219 282.933594 C 198.125 282.933594 193.09375 277.902344 193.09375 271.703125 C 193.09375 265.503906 198.125 260.472656 204.324219 260.472656 Z M 204.324219 327.851562 L 451.375 327.851562 C 457.585938 327.851562 462.605469 332.882812 462.605469 339.082031 C 462.605469 345.277344 457.585938 350.308594 451.375 350.308594 L 204.324219 350.308594 C 198.125 350.308594 193.09375 345.277344 193.09375 339.082031 C 193.09375 332.882812 198.125 327.851562 204.324219 327.851562 Z M 204.324219 395.226562 L 384 395.226562 C 390.199219 395.226562 395.226562 400.246094 395.226562 406.457031 C 395.226562 412.667969 390.199219 417.6875 384 417.6875 L 204.324219 417.6875 C 198.125 417.6875 193.09375 412.667969 193.09375 406.457031 C 193.09375 400.246094 198.125 395.226562 204.324219 395.226562 Z M 316.621094 552.441406 L 204.324219 552.441406 C 198.125 552.441406 193.09375 547.421875 193.09375 541.214844 C 193.09375 535.003906 198.125 529.984375 204.324219 529.984375 L 316.621094 529.984375 C 322.820312 529.984375 327.851562 535.003906 327.851562 541.214844 C 327.851562 547.421875 322.820312 552.441406 316.621094 552.441406 Z M 339.082031 485.066406 L 204.324219 485.066406 C 198.125 485.066406 193.09375 480.046875 193.09375 473.835938 C 193.09375 467.625 198.125 462.605469 204.324219 462.605469 L 339.082031 462.605469 C 345.277344 462.605469 350.308594 467.625 350.308594 473.835938 C 350.308594 480.046875 345.277344 485.066406 339.082031 485.066406 Z M 616.53125 333.859375 L 425.953125 524.4375 C 424.726562 525.660156 423.222656 526.59375 421.5625 527.140625 L 373.925781 543.019531 C 372.757812 543.414062 371.566406 543.605469 370.378906 543.605469 C 367.445312 543.605469 364.570312 542.449219 362.4375 540.316406 C 359.429688 537.304688 358.382812 532.859375 359.71875 528.828125 L 375.597656 481.191406 C 376.148438 479.539062 377.082031 478.035156 378.316406 476.800781 L 568.894531 286.222656 C 573.105469 282.011719 580.5625 282.011719 584.773438 286.222656 L 616.53125 317.980469 C 618.640625 320.089844 619.820312 322.941406 619.820312 325.917969 C 619.820312 328.894531 618.640625 331.757812 616.53125 333.859375 Z M 616.53125 333.859375 " fill-opacity="1" fill-rule="nonzero"/></g></svg>