<svg xmlns="http://www.w3.org/2000/svg" xmlns:xlink="http://www.w3.org/1999/xlink" width="1024" zoomAndPan="magnify" viewBox="0 0 768 767.999994" height="1024" preserveAspectRatio="xMidYMid meet" version="1.0"><defs><clipPath id="a4d2e745a2"><path d="M 255 82.175781 L 513 82.175781 L 513 357 L 255 357 Z M 255 82.175781 " clip-rule="nonzero"/></clipPath><clipPath id="625f07e436"><path d="M 255 411 L 513 411 L 513 685.925781 L 255 685.925781 Z M 255 411 " clip-rule="nonzero"/></clipPath></defs><rect x="-76.8" width="921.6" fill="#ffffff" y="-76.799999" height="921.599993" fill-opacity="1"/><rect x="-76.8" width="921.6" fill="#ffffff" y="-76.799999" height="921.599993" fill-opacity="1"/><g clip-path="url(#a4d2e745a2)"><path fill="#f4f5f7" d="M 430.476562 224.097656 C 430.476562 227.664062 427.585938 230.574219 424.019531 230.574219 L 395.417969 230.574219 L 395.417969 260.871094 C 395.417969 264.441406 392.527344 267.332031 388.957031 267.332031 L 379.03125 267.332031 C 375.464844 267.332031 372.574219 264.441406 372.574219 260.871094 L 372.574219 230.574219 L 343.972656 230.574219 C 340.402344 230.574219 337.511719 227.664062 337.511719 224.097656 L 337.511719 214.789062 C 337.511719 211.222656 340.402344 208.332031 343.972656 208.332031 L 372.574219 208.332031 L 372.574219 178.351562 C 372.574219 174.765625 375.464844 171.875 379.03125 171.875 L 388.957031 171.875 C 392.527344 171.875 395.417969 174.765625 395.417969 178.351562 L 395.417969 208.332031 L 424.019531 208.332031 C 427.585938 208.332031 430.476562 211.222656 430.476562 214.789062 Z M 499.183594 179.371094 L 415.128906 95.296875 C 406.796875 86.984375 395.753906 82.398438 383.996094 82.398438 C 372.234375 82.398438 361.191406 86.984375 352.859375 95.296875 L 268.808594 179.371094 C 260.476562 187.679688 255.910156 198.742188 255.910156 210.484375 C 255.910156 222.242188 260.476562 233.304688 268.808594 241.617188 L 383.996094 356.808594 L 499.183594 241.617188 C 507.515625 233.304688 512.078125 222.242188 512.078125 210.484375 C 512.078125 198.742188 507.515625 187.679688 499.183594 179.371094 " fill-opacity="1" fill-rule="nonzero"/></g><g clip-path="url(#625f07e436)"><path fill="#f4f5f7" d="M 420.273438 569.203125 C 422.804688 571.734375 422.804688 575.824219 420.273438 578.355469 L 413.695312 584.953125 C 412.476562 586.148438 410.84375 586.84375 409.109375 586.84375 C 407.394531 586.84375 405.761719 586.148438 404.546875 584.953125 L 384.335938 564.71875 L 362.90625 586.148438 C 361.632812 587.402344 359.976562 588.039062 358.324219 588.039062 C 356.6875 588.039062 355.015625 587.402344 353.757812 586.148438 L 346.742188 579.132812 C 345.527344 577.914062 344.847656 576.28125 344.847656 574.546875 C 344.847656 572.851562 345.527344 571.199219 346.742188 569.980469 L 368.167969 548.554688 L 347.9375 528.34375 C 346.722656 527.128906 346.042969 525.472656 346.042969 523.757812 C 346.042969 522.046875 346.722656 520.410156 347.9375 519.195312 L 354.535156 512.617188 C 355.792969 511.339844 357.445312 510.722656 359.101562 510.722656 C 360.753906 510.722656 362.410156 511.339844 363.683594 512.617188 L 383.894531 532.828125 L 405.082031 511.640625 C 406.359375 510.363281 408.015625 509.746094 409.667969 509.746094 C 411.324219 509.746094 412.976562 510.363281 414.234375 511.640625 L 421.25 518.65625 C 422.464844 519.871094 423.140625 521.507812 423.140625 523.222656 C 423.140625 524.933594 422.464844 526.589844 421.25 527.804688 L 400.0625 548.992188 Z M 499.183594 526.867188 L 383.996094 411.679688 L 268.808594 526.867188 C 260.476562 535.199219 255.910156 546.242188 255.910156 558.003906 C 255.910156 569.761719 260.476562 580.824219 268.808594 589.136719 L 352.859375 673.210938 C 361.191406 681.523438 372.234375 686.109375 383.996094 686.109375 C 395.753906 686.109375 406.796875 681.523438 415.128906 673.210938 L 499.183594 589.136719 C 507.515625 580.824219 512.078125 569.761719 512.078125 558.003906 C 512.078125 546.242188 507.515625 535.199219 499.183594 526.867188 " fill-opacity="1" fill-rule="nonzero"/></g><path fill="#f4f5f7" d="M 589.976562 389.296875 C 589.976562 392.863281 587.085938 395.753906 583.496094 395.753906 L 513.734375 395.753906 C 510.167969 395.753906 507.277344 392.863281 507.277344 389.296875 L 507.277344 379.210938 C 507.277344 375.644531 510.167969 372.734375 513.734375 372.734375 L 583.496094 372.734375 C 587.085938 372.734375 589.976562 375.644531 589.976562 379.210938 Z M 672.953125 353.121094 L 588.878906 269.066406 C 580.566406 260.753906 569.503906 256.167969 557.746094 256.167969 C 545.984375 256.167969 534.941406 260.753906 526.628906 269.066406 L 411.421875 384.234375 L 526.628906 499.441406 C 534.941406 507.753906 545.984375 512.339844 557.746094 512.339844 C 569.503906 512.339844 580.566406 507.753906 588.878906 499.441406 L 672.953125 415.367188 C 690.113281 398.207031 690.113281 370.28125 672.953125 353.121094 " fill-opacity="1" fill-rule="nonzero"/><path fill="#f4f5f7" d="M 249.613281 380.585938 L 189.117188 380.585938 C 185.550781 380.585938 182.660156 377.695312 182.660156 374.128906 L 182.660156 367.089844 C 182.660156 363.503906 185.550781 360.613281 189.117188 360.613281 L 249.613281 360.613281 C 253.179688 360.613281 256.070312 363.503906 256.070312 367.089844 L 256.070312 374.128906 C 256.070312 377.695312 253.179688 380.585938 249.613281 380.585938 Z M 256.070312 401.953125 C 256.070312 405.519531 253.179688 408.410156 249.613281 408.410156 L 189.117188 408.410156 C 185.550781 408.410156 182.660156 405.519531 182.660156 401.953125 L 182.660156 394.917969 C 182.660156 391.328125 185.550781 388.4375 189.117188 388.4375 L 249.613281 388.4375 C 253.179688 388.4375 256.070312 391.328125 256.070312 394.917969 Z M 241.359375 269.066406 C 233.046875 260.753906 222.003906 256.167969 210.246094 256.167969 C 198.484375 256.167969 187.421875 260.753906 179.113281 269.066406 L 95.039062 353.121094 C 77.875 370.28125 77.875 398.207031 95.039062 415.367188 L 179.113281 499.441406 C 187.421875 507.753906 198.484375 512.339844 210.246094 512.339844 C 222.003906 512.339844 233.046875 507.753906 241.359375 499.441406 L 356.570312 384.234375 L 241.359375 269.066406 " fill-opacity="1" fill-rule="nonzero"/></svg>