<svg xmlns="http://www.w3.org/2000/svg" xmlns:xlink="http://www.w3.org/1999/xlink" width="1024" zoomAndPan="magnify" viewBox="0 0 768 767.999994" height="1024" preserveAspectRatio="xMidYMid meet" version="1.0"><defs><clipPath id="a54dbbbb17"><path d="M 587.707031 372 L 680.191406 372 L 680.191406 430 L 587.707031 430 Z M 587.707031 372 " clip-rule="nonzero"/></clipPath><clipPath id="f76ac5fa5f"><path d="M 87.796875 76.800781 L 490 76.800781 L 490 691.050781 L 87.796875 691.050781 Z M 87.796875 76.800781 " clip-rule="nonzero"/></clipPath></defs><rect x="-76.8" width="921.6" fill="#ffffff" y="-76.799999" height="921.599993" fill-opacity="1"/><rect x="-76.8" width="921.6" fill="#ffffff" y="-76.799999" height="921.599993" fill-opacity="1"/><g clip-path="url(#a54dbbbb17)"><path fill="#f4f5f7" d="M 670.78125 429.21875 L 613.855469 429.21875 C 599.445312 429.21875 587.785156 417.558594 587.785156 403.167969 L 587.785156 398.851562 C 587.785156 384.460938 599.445312 372.800781 613.855469 372.800781 L 670.78125 372.800781 C 675.972656 372.800781 680.171875 377 680.171875 382.175781 L 680.171875 419.84375 C 680.171875 425.019531 675.972656 429.21875 670.78125 429.21875 " fill-opacity="1" fill-rule="nonzero"/></g><path fill="#f4f5f7" d="M 297.898438 496.082031 L 297.898438 502.289062 C 297.898438 521.917969 313.8125 537.832031 333.4375 537.832031 L 638.148438 537.832031 C 657.773438 537.832031 673.691406 521.917969 673.691406 502.289062 L 673.691406 496.082031 L 297.898438 496.082031 " fill-opacity="1" fill-rule="nonzero"/><path fill="#f4f5f7" d="M 497.414062 436.265625 L 497.414062 438.257812 C 497.414062 445.015625 491.925781 450.503906 485.167969 450.503906 C 478.429688 450.503906 472.925781 445.015625 472.925781 438.257812 L 472.925781 436.265625 C 458.6875 432.109375 447.460938 420.9375 443.300781 406.605469 C 442.226562 402.972656 442.929688 399.125 445.214844 396.058594 C 447.539062 392.953125 451.230469 391.097656 455.074219 391.097656 C 460.484375 391.097656 465.308594 394.671875 466.792969 399.769531 C 469.15625 407.894531 476.710938 413.574219 485.167969 413.574219 C 490.441406 413.574219 495.363281 411.46875 499.011719 407.621094 C 502.664062 403.792969 504.539062 398.734375 504.285156 393.421875 C 503.796875 383.542969 495.011719 375.398438 484.71875 375.28125 C 463.101562 375.027344 445.507812 357.257812 445.507812 335.660156 C 445.507812 318.398438 456.65625 303.261719 472.925781 297.972656 L 472.925781 295.765625 C 472.925781 289.027344 478.429688 283.519531 485.167969 283.519531 C 491.925781 283.519531 497.414062 289.027344 497.414062 295.765625 L 497.414062 297.972656 C 509.1875 301.839844 518.777344 311.230469 522.757812 323.007812 C 524.007812 326.695312 523.421875 330.660156 521.117188 333.84375 C 518.816406 337.066406 515.105469 338.980469 511.160156 338.980469 L 510.496094 338.980469 C 505.574219 338.980469 501.179688 335.71875 499.578125 330.855469 C 497.511719 324.648438 491.710938 320.46875 485.167969 320.46875 C 480.929688 320.46875 476.847656 322.265625 473.960938 325.425781 C 471.050781 328.609375 469.664062 332.730469 470.054688 337.046875 C 470.738281 344.664062 477.628906 350.714844 485.753906 350.8125 C 509.460938 351.144531 528.773438 370.710938 528.773438 394.417969 C 528.773438 413.691406 515.730469 430.898438 497.414062 436.265625 Z M 617.410156 352.472656 L 663.535156 352.472656 C 669.140625 352.472656 673.691406 347.941406 673.691406 342.320312 L 673.691406 299.710938 C 673.691406 280.105469 657.773438 264.167969 638.148438 264.167969 L 336.367188 264.167969 C 327.617188 264.167969 319.75 257.765625 318.910156 249.015625 C 317.953125 238.996094 325.820312 230.523438 335.683594 230.523438 L 637.953125 230.523438 C 642.738281 230.523438 646.976562 227.339844 648.011719 222.691406 C 648.011719 222.59375 648.050781 222.535156 648.050781 222.457031 C 649.574219 215.894531 644.75 209.589844 638.011719 209.589844 L 333.457031 209.589844 C 313.8125 209.589844 297.878906 225.523438 297.878906 245.128906 L 297.878906 459.699219 C 297.878906 465.304688 302.464844 469.855469 308.070312 469.855469 L 663.535156 469.855469 C 669.140625 469.855469 673.691406 465.304688 673.691406 459.699219 C 673.691406 456.886719 672.558594 454.351562 670.703125 452.535156 C 668.886719 450.679688 666.328125 449.546875 663.535156 449.546875 L 615.984375 449.546875 C 588.449219 449.546875 566.148438 426.425781 567.535156 398.578125 C 568.804688 372.488281 591.300781 352.472656 617.410156 352.472656 " fill-opacity="1" fill-rule="nonzero"/><g clip-path="url(#f76ac5fa5f)"><path fill="#f4f5f7" d="M 320.492188 661.988281 L 256.34375 661.988281 C 247.90625 661.988281 241.089844 655.152344 241.089844 646.738281 C 241.089844 638.320312 247.90625 631.488281 256.34375 631.488281 L 320.492188 631.488281 C 328.90625 631.488281 335.742188 638.320312 335.742188 646.738281 C 335.742188 655.152344 328.90625 661.988281 320.492188 661.988281 Z M 448.027344 576.691406 L 448.027344 585.246094 C 448.027344 594.675781 440.390625 602.332031 430.960938 602.332031 L 145.875 602.332031 C 136.441406 602.332031 128.785156 594.675781 128.785156 585.246094 L 128.785156 162.175781 C 128.785156 152.742188 136.441406 145.089844 145.875 145.089844 L 430.960938 145.089844 C 440.390625 145.089844 448.027344 152.742188 448.027344 162.175781 L 448.027344 170.730469 L 489.035156 170.730469 L 489.035156 117.769531 C 489.035156 95.136719 470.679688 76.78125 448.027344 76.78125 L 128.785156 76.78125 C 106.152344 76.78125 87.796875 95.136719 87.796875 117.769531 L 87.796875 650.15625 C 87.796875 672.789062 106.152344 691.144531 128.785156 691.144531 L 448.027344 691.144531 C 470.679688 691.144531 489.035156 672.789062 489.035156 650.15625 L 489.035156 576.691406 L 448.027344 576.691406 " fill-opacity="1" fill-rule="nonzero"/></g></svg>