<svg xmlns="http://www.w3.org/2000/svg" xmlns:xlink="http://www.w3.org/1999/xlink" width="1024" zoomAndPan="magnify" viewBox="0 0 768 767.999994" height="1024" preserveAspectRatio="xMidYMid meet" version="1.0"><defs><clipPath id="ad5c71b7f4"><path d="M 118 164.734375 L 651 164.734375 L 651 392 L 118 392 Z M 118 164.734375 " clip-rule="nonzero"/></clipPath><clipPath id="4b6cbb885a"><path d="M 77 198 L 691 198 L 691 603.484375 L 77 603.484375 Z M 77 198 " clip-rule="nonzero"/></clipPath></defs><rect x="-76.8" width="921.6" fill="#ffffff" y="-76.799999" height="921.599993" fill-opacity="1"/><g clip-path="url(#ad5c71b7f4)"><path fill="#f4f5f7" d="M 650.621094 169.777344 C 642.480469 166.394531 634 164.710938 625.183594 164.734375 L 142.804688 164.734375 C 134.445312 164.746094 126.40625 166.355469 118.6875 169.558594 L 383.996094 391.453125 Z M 650.621094 169.777344 " fill-opacity="1" fill-rule="nonzero"/></g><g clip-path="url(#4b6cbb885a)"><path fill="#f4f5f7" d="M 683.070312 199.816406 L 398.027344 436.84375 C 396.054688 438.476562 393.863281 439.726562 391.453125 440.59375 C 389.042969 441.460938 386.558594 441.890625 383.996094 441.886719 C 381.433594 441.890625 378.949219 441.460938 376.535156 440.59375 C 374.125 439.726562 371.933594 438.476562 369.960938 436.84375 L 85.359375 198.941406 C 82.691406 203.78125 80.652344 208.871094 79.242188 214.214844 C 77.832031 219.554688 77.09375 224.988281 77.027344 230.515625 L 77.027344 537.484375 C 77.027344 538.5625 77.050781 539.636719 77.105469 540.710938 C 77.160156 541.785156 77.238281 542.859375 77.34375 543.933594 C 77.449219 545.003906 77.582031 546.070312 77.738281 547.136719 C 77.894531 548.199219 78.078125 549.261719 78.289062 550.316406 C 78.5 551.371094 78.734375 552.421875 78.996094 553.46875 C 79.257812 554.511719 79.546875 555.546875 79.859375 556.578125 C 80.171875 557.609375 80.507812 558.628906 80.871094 559.644531 C 81.234375 560.65625 81.621094 561.664062 82.035156 562.65625 C 82.445312 563.652344 82.882812 564.636719 83.339844 565.609375 C 83.800781 566.582031 84.285156 567.542969 84.792969 568.492188 C 85.300781 569.441406 85.832031 570.378906 86.382812 571.300781 C 86.9375 572.226562 87.515625 573.132812 88.113281 574.027344 C 88.710938 574.925781 89.328125 575.804688 89.972656 576.667969 C 90.613281 577.535156 91.273438 578.382812 91.957031 579.214844 C 92.640625 580.046875 93.34375 580.859375 94.066406 581.660156 C 94.789062 582.457031 95.53125 583.234375 96.292969 583.996094 C 97.054688 584.757812 97.832031 585.5 98.628906 586.222656 C 99.429688 586.945312 100.242188 587.648438 101.074219 588.332031 C 101.90625 589.015625 102.757812 589.675781 103.621094 590.320312 C 104.484375 590.960938 105.367188 591.578125 106.261719 592.175781 C 107.15625 592.777344 108.066406 593.351562 108.988281 593.90625 C 109.910156 594.457031 110.847656 594.988281 111.796875 595.496094 C 112.746094 596.003906 113.707031 596.488281 114.679688 596.949219 C 115.652344 597.40625 116.636719 597.84375 117.632812 598.257812 C 118.628906 598.667969 119.632812 599.054688 120.644531 599.417969 C 121.660156 599.78125 122.679688 600.117188 123.710938 600.429688 C 124.742188 600.742188 125.777344 601.03125 126.820312 601.292969 C 127.867188 601.554688 128.917969 601.789062 129.972656 602 C 131.027344 602.210938 132.089844 602.394531 133.152344 602.550781 C 134.21875 602.710938 135.285156 602.839844 136.359375 602.945312 C 137.429688 603.050781 138.503906 603.132812 139.578125 603.183594 C 140.652344 603.238281 141.730469 603.261719 142.804688 603.261719 L 625.183594 603.261719 C 626.261719 603.261719 627.335938 603.238281 628.414062 603.183594 C 629.488281 603.132812 630.5625 603.050781 631.632812 602.945312 C 632.703125 602.839844 633.773438 602.710938 634.835938 602.550781 C 635.902344 602.394531 636.960938 602.210938 638.019531 602 C 639.074219 601.789062 640.125 601.554688 641.167969 601.292969 C 642.210938 601.03125 643.25 600.742188 644.28125 600.429688 C 645.308594 600.117188 646.332031 599.78125 647.34375 599.417969 C 648.359375 599.054688 649.363281 598.667969 650.359375 598.257812 C 651.351562 597.84375 652.335938 597.40625 653.308594 596.949219 C 654.28125 596.488281 655.242188 596.003906 656.195312 595.496094 C 657.144531 594.988281 658.078125 594.457031 659.003906 593.90625 C 659.925781 593.351562 660.835938 592.777344 661.730469 592.175781 C 662.625 591.578125 663.503906 590.960938 664.371094 590.316406 C 665.234375 589.675781 666.082031 589.015625 666.914062 588.332031 C 667.746094 587.648438 668.5625 586.945312 669.359375 586.222656 C 670.15625 585.5 670.9375 584.757812 671.699219 583.996094 C 672.460938 583.234375 673.203125 582.457031 673.925781 581.660156 C 674.648438 580.859375 675.351562 580.046875 676.035156 579.214844 C 676.714844 578.382812 677.378906 577.535156 678.019531 576.667969 C 678.660156 575.804688 679.28125 574.925781 679.878906 574.027344 C 680.476562 573.132812 681.050781 572.226562 681.605469 571.300781 C 682.160156 570.378906 682.691406 569.441406 683.199219 568.492188 C 683.703125 567.542969 684.1875 566.582031 684.648438 565.609375 C 685.109375 564.636719 685.546875 563.652344 685.957031 562.65625 C 686.371094 561.664062 686.757812 560.65625 687.121094 559.644531 C 687.480469 558.628906 687.820312 557.609375 688.132812 556.578125 C 688.445312 555.546875 688.730469 554.511719 688.992188 553.46875 C 689.253906 552.421875 689.492188 551.371094 689.699219 550.316406 C 689.910156 549.261719 690.09375 548.199219 690.253906 547.136719 C 690.410156 546.070312 690.542969 545.003906 690.648438 543.933594 C 690.753906 542.859375 690.832031 541.785156 690.886719 540.710938 C 690.9375 539.636719 690.964844 538.5625 690.964844 537.484375 L 690.964844 230.515625 C 690.917969 225.152344 690.230469 219.875 688.894531 214.683594 C 687.558594 209.492188 685.617188 204.535156 683.070312 199.816406 Z M 683.070312 199.816406 " fill-opacity="1" fill-rule="nonzero"/></g></svg>