<svg xmlns="http://www.w3.org/2000/svg" xmlns:xlink="http://www.w3.org/1999/xlink" width="1024" zoomAndPan="magnify" viewBox="0 0 768 767.999994" height="1024" preserveAspectRatio="xMidYMid meet" version="1.0"><defs><clipPath id="6bc6a34da8"><path d="M 108.855469 152 L 659.136719 152 L 659.136719 659.125 L 108.855469 659.125 Z M 108.855469 152 " clip-rule="nonzero"/></clipPath></defs><rect x="-76.8" width="921.6" fill="#ffffff" y="-76.799999" height="921.599993" fill-opacity="1"/><rect x="-76.8" width="921.6" fill="#ffffff" y="-76.799999" height="921.599993" fill-opacity="1"/><g clip-path="url(#6bc6a34da8)"><path fill="#f4f5f7" d="M 150.722656 301.082031 L 617.269531 301.082031 L 617.269531 591.171875 C 617.269531 605.679688 605.496094 617.453125 590.984375 617.453125 L 177.007812 617.453125 C 162.496094 617.503906 150.722656 605.730469 150.722656 591.171875 Z M 161.472656 152.035156 C 132.40625 152.035156 108.855469 175.582031 108.855469 204.597656 L 108.855469 606.558594 C 108.855469 635.578125 132.40625 659.125 161.472656 659.125 L 606.519531 659.125 C 635.585938 659.175781 659.132812 635.625 659.132812 606.558594 L 659.132812 204.597656 C 659.132812 175.582031 635.585938 152.035156 606.519531 152.035156 L 555.8125 152.035156 L 555.8125 194.4375 C 555.617188 219.15625 535.441406 238.992188 510.769531 238.796875 C 486.34375 238.601562 466.605469 218.863281 466.410156 194.4375 L 466.410156 152.035156 L 301.582031 152.035156 L 301.582031 194.4375 C 301.386719 219.15625 281.210938 238.992188 256.492188 238.796875 C 232.113281 238.601562 212.375 218.863281 212.179688 194.4375 L 212.179688 152.035156 L 161.472656 152.035156 " fill-opacity="1" fill-rule="nonzero"/></g><path fill="#f4f5f7" d="M 564.507812 516.671875 L 564.507812 563.714844 L 501 563.714844 L 501 516.671875 L 564.507812 516.671875 " fill-opacity="1" fill-rule="nonzero"/><path fill="#f4f5f7" d="M 465.335938 516.671875 L 465.335938 563.714844 L 401.828125 563.714844 L 401.828125 516.671875 L 465.335938 516.671875 " fill-opacity="1" fill-rule="nonzero"/><path fill="#f4f5f7" d="M 366.164062 516.671875 L 366.164062 563.714844 L 302.65625 563.714844 L 302.65625 516.671875 L 366.164062 516.671875 " fill-opacity="1" fill-rule="nonzero"/><path fill="#f4f5f7" d="M 266.992188 516.671875 L 266.992188 563.714844 L 203.484375 563.714844 L 203.484375 516.671875 L 266.992188 516.671875 " fill-opacity="1" fill-rule="nonzero"/><path fill="#f4f5f7" d="M 564.507812 435.769531 L 564.507812 482.816406 L 501 482.816406 L 501 435.769531 L 564.507812 435.769531 " fill-opacity="1" fill-rule="nonzero"/><path fill="#f4f5f7" d="M 465.335938 435.769531 L 465.335938 482.816406 L 401.828125 482.816406 L 401.828125 435.769531 L 465.335938 435.769531 " fill-opacity="1" fill-rule="nonzero"/><path fill="#f4f5f7" d="M 366.164062 435.769531 L 366.164062 482.816406 L 302.65625 482.816406 L 302.65625 435.769531 L 366.164062 435.769531 " fill-opacity="1" fill-rule="nonzero"/><path fill="#f4f5f7" d="M 266.992188 435.769531 L 266.992188 482.816406 L 203.484375 482.816406 L 203.484375 435.769531 L 266.992188 435.769531 " fill-opacity="1" fill-rule="nonzero"/><path fill="#f4f5f7" d="M 564.507812 354.871094 L 564.507812 401.914062 L 501 401.914062 L 501 354.871094 L 564.507812 354.871094 " fill-opacity="1" fill-rule="nonzero"/><path fill="#f4f5f7" d="M 465.335938 354.871094 L 465.335938 401.914062 L 401.828125 401.914062 L 401.828125 354.871094 L 465.335938 354.871094 " fill-opacity="1" fill-rule="nonzero"/><path fill="#f4f5f7" d="M 366.164062 354.871094 L 366.164062 401.914062 L 302.65625 401.914062 L 302.65625 354.871094 L 366.164062 354.871094 " fill-opacity="1" fill-rule="nonzero"/><path fill="#f4f5f7" d="M 266.992188 354.871094 L 266.992188 401.914062 L 203.484375 401.914062 L 203.484375 354.871094 L 266.992188 354.871094 " fill-opacity="1" fill-rule="nonzero"/><path fill="#f4f5f7" d="M 531.679688 193.898438 L 531.679688 130.097656 C 531.679688 118.714844 522.445312 109.53125 511.0625 109.582031 C 499.726562 109.582031 490.542969 118.765625 490.542969 130.097656 L 490.542969 193.898438 C 490.542969 205.234375 499.824219 214.46875 511.160156 214.417969 C 522.492188 214.417969 531.679688 205.234375 531.679688 193.898438 " fill-opacity="1" fill-rule="nonzero"/><path fill="#f4f5f7" d="M 277.449219 130.097656 C 277.449219 118.714844 268.214844 109.53125 256.882812 109.53125 C 245.5 109.582031 236.3125 118.765625 236.3125 130.097656 L 236.3125 193.898438 C 236.3125 205.234375 245.5 214.46875 256.882812 214.46875 C 268.265625 214.417969 277.449219 205.234375 277.449219 193.898438 L 277.449219 130.097656 " fill-opacity="1" fill-rule="nonzero"/></svg>