<svg xmlns="http://www.w3.org/2000/svg" xmlns:xlink="http://www.w3.org/1999/xlink" width="1024" zoomAndPan="magnify" viewBox="0 0 768 767.999994" height="1024" preserveAspectRatio="xMidYMid meet" version="1.0"><defs><clipPath id="0816139f2a"><path d="M 91.367188 65 L 676.367188 65 L 676.367188 703 L 91.367188 703 Z M 91.367188 65 " clip-rule="nonzero"/></clipPath></defs><rect x="-76.8" width="921.6" fill="#ffffff" y="-76.799999" height="921.599993" fill-opacity="1"/><rect x="-76.8" width="921.6" fill="#ffffff" y="-76.799999" height="921.599993" fill-opacity="1"/><g clip-path="url(#0816139f2a)"><path fill="#f4f5f7" d="M 345.769531 122.757812 C 380.808594 87.128906 429.566406 65.03125 483.488281 65.03125 C 590.152344 65.03125 676.625 151.5 676.625 258.167969 C 676.625 346.300781 617.589844 420.648438 536.90625 443.820312 C 536.953125 465.960938 536.992188 486.6875 537.023438 506.324219 C 537.152344 589.816406 537.109375 647.074219 536.886719 677.636719 L 557.359375 677.636719 C 564.351562 677.636719 570.019531 683.308594 570.019531 690.300781 C 570.019531 697.292969 564.351562 702.960938 557.359375 702.960938 L 226.855469 702.960938 C 219.863281 702.960938 214.191406 697.292969 214.191406 690.300781 C 214.191406 683.308594 219.863281 677.636719 226.855469 677.636719 L 264.191406 677.636719 L 264.191406 531.703125 L 203.820312 531.703125 C 177.242188 531.703125 155.699219 510.160156 155.699219 483.585938 L 155.699219 434.285156 L 139.613281 434.285156 C 134.996094 434.285156 130.453125 433.136719 126.394531 430.949219 C 112.851562 423.648438 107.789062 406.75 115.089844 393.207031 L 162.367188 305.507812 C 163.632812 262.898438 165.53125 233.933594 168.203125 217.847656 C 168.15625 217.832031 168.105469 217.816406 168.050781 217.796875 C 161.785156 215.789062 151.136719 214.09375 136.433594 212.886719 C 110.96875 210.789062 91.367188 189.507812 91.367188 163.953125 C 91.367188 163.519531 91.371094 163.085938 91.382812 162.652344 C 92.105469 137.117188 113.382812 117.003906 138.914062 117.726562 C 235.21875 120.4375 297 121.792969 324.09375 121.792969 C 331.410156 121.792969 338.644531 122.121094 345.769531 122.757812 Z M 483.488281 433.742188 C 580.457031 433.742188 659.066406 355.132812 659.066406 258.167969 C 659.066406 161.199219 580.457031 82.589844 483.488281 82.589844 C 386.519531 82.589844 307.910156 161.199219 307.910156 258.167969 C 307.910156 355.132812 386.519531 433.742188 483.488281 433.742188 Z M 431.816406 193.789062 L 378.328125 260.617188 L 431.816406 331.136719 L 396.515625 331.136719 L 343.027344 260.984375 L 396.515625 193.789062 Z M 521.855469 193.789062 L 480.847656 331.136719 L 450.894531 331.136719 L 491.902344 193.789062 Z M 537.902344 331.136719 L 591.394531 264.308594 L 537.902344 193.789062 L 573.207031 193.789062 L 626.695312 263.9375 L 573.207031 331.136719 Z M 537.902344 331.136719 " fill-opacity="1" fill-rule="nonzero"/></g></svg>