<svg xmlns="http://www.w3.org/2000/svg" xmlns:xlink="http://www.w3.org/1999/xlink" width="1024" zoomAndPan="magnify" viewBox="0 0 768 767.999994" height="1024" preserveAspectRatio="xMidYMid meet" version="1.0"><defs><clipPath id="fccb3f4705"><path d="M 76.800781 273 L 495 273 L 495 691 L 76.800781 691 Z M 76.800781 273 " clip-rule="nonzero"/></clipPath><clipPath id="c14061c621"><path d="M 420 76.800781 L 691.050781 76.800781 L 691.050781 348 L 420 348 Z M 420 76.800781 " clip-rule="nonzero"/></clipPath></defs><rect x="-76.8" width="921.6" fill="#ffffff" y="-76.799999" height="921.599993" fill-opacity="1"/><rect x="-76.8" width="921.6" fill="#ffffff" y="-76.799999" height="921.599993" fill-opacity="1"/><g clip-path="url(#fccb3f4705)"><path fill="#f4f5f7" d="M 484.3125 437.398438 L 454.453125 432.484375 C 450.945312 420.585938 446.226562 409.191406 440.296875 398.296875 L 457.871094 373.722656 C 458.289062 373.136719 458.652344 372.515625 458.964844 371.867188 C 459.273438 371.214844 459.527344 370.542969 459.71875 369.847656 C 459.910156 369.152344 460.039062 368.445312 460.105469 367.726562 C 460.171875 367.007812 460.175781 366.289062 460.117188 365.570312 C 460.058594 364.851562 459.9375 364.144531 459.753906 363.445312 C 459.570312 362.75 459.328125 362.074219 459.023438 361.417969 C 458.722656 360.761719 458.363281 360.140625 457.949219 359.550781 C 457.539062 358.957031 457.078125 358.40625 456.566406 357.894531 L 410.21875 311.546875 C 409.707031 311.035156 409.15625 310.574219 408.566406 310.164062 C 407.972656 309.75 407.351562 309.390625 406.695312 309.089844 C 406.039062 308.785156 405.363281 308.542969 404.667969 308.359375 C 403.96875 308.175781 403.261719 308.054688 402.542969 307.996094 C 401.824219 307.9375 401.105469 307.941406 400.386719 308.007812 C 399.667969 308.074219 398.960938 308.203125 398.265625 308.394531 C 397.570312 308.585938 396.898438 308.839844 396.246094 309.148438 C 395.597656 309.460938 394.976562 309.824219 394.390625 310.242188 L 369.816406 327.816406 C 358.921875 321.886719 347.527344 317.167969 335.628906 313.660156 L 330.714844 283.800781 C 330.597656 283.085938 330.417969 282.390625 330.175781 281.710938 C 329.933594 281.027344 329.636719 280.375 329.277344 279.746094 C 328.921875 279.117188 328.511719 278.527344 328.050781 277.96875 C 327.589844 277.414062 327.082031 276.902344 326.53125 276.433594 C 325.980469 275.96875 325.390625 275.554688 324.765625 275.191406 C 324.140625 274.828125 323.488281 274.523438 322.8125 274.273438 C 322.132812 274.027344 321.4375 273.839844 320.726562 273.714844 C 320.015625 273.589844 319.296875 273.527344 318.574219 273.527344 L 252.933594 273.527344 C 252.210938 273.527344 251.492188 273.589844 250.78125 273.714844 C 250.070312 273.839844 249.375 274.027344 248.695312 274.273438 C 248.019531 274.523438 247.367188 274.828125 246.742188 275.191406 C 246.117188 275.554688 245.527344 275.96875 244.976562 276.433594 C 244.425781 276.902344 243.917969 277.414062 243.457031 277.96875 C 242.996094 278.527344 242.585938 279.117188 242.230469 279.746094 C 241.875 280.375 241.574219 281.027344 241.332031 281.710938 C 241.089844 282.390625 240.910156 283.085938 240.792969 283.800781 L 235.878906 313.660156 C 223.980469 317.167969 212.585938 321.886719 201.691406 327.816406 L 177.117188 310.242188 C 176.53125 309.824219 175.910156 309.460938 175.261719 309.148438 C 174.609375 308.839844 173.9375 308.585938 173.242188 308.394531 C 172.546875 308.203125 171.839844 308.074219 171.121094 308.007812 C 170.402344 307.941406 169.683594 307.9375 168.964844 307.996094 C 168.246094 308.054688 167.539062 308.175781 166.839844 308.359375 C 166.144531 308.542969 165.46875 308.785156 164.8125 309.089844 C 164.160156 309.390625 163.535156 309.75 162.945312 310.164062 C 162.351562 310.574219 161.800781 311.035156 161.289062 311.546875 L 114.820312 357.773438 C 114.308594 358.285156 113.847656 358.835938 113.433594 359.425781 C 113.023438 360.015625 112.664062 360.640625 112.363281 361.296875 C 112.058594 361.949219 111.816406 362.625 111.632812 363.324219 C 111.449219 364.019531 111.328125 364.730469 111.265625 365.449219 C 111.207031 366.167969 111.210938 366.886719 111.28125 367.601562 C 111.347656 368.320312 111.476562 369.027344 111.667969 369.722656 C 111.859375 370.417969 112.109375 371.089844 112.421875 371.742188 C 112.730469 372.394531 113.097656 373.011719 113.515625 373.601562 L 131.085938 398.175781 C 125.160156 409.070312 120.441406 420.464844 116.933594 432.359375 L 87.074219 437.273438 C 86.359375 437.394531 85.664062 437.574219 84.980469 437.816406 C 84.300781 438.054688 83.644531 438.355469 83.019531 438.710938 C 82.390625 439.070312 81.796875 439.480469 81.242188 439.941406 C 80.6875 440.402344 80.175781 440.90625 79.707031 441.460938 C 79.242188 442.011719 78.824219 442.597656 78.464844 443.222656 C 78.101562 443.847656 77.792969 444.5 77.546875 445.179688 C 77.296875 445.859375 77.113281 446.554688 76.988281 447.265625 C 76.859375 447.976562 76.800781 448.691406 76.800781 449.414062 L 76.800781 514.933594 C 76.800781 515.65625 76.859375 516.375 76.988281 517.085938 C 77.113281 517.796875 77.296875 518.492188 77.546875 519.171875 C 77.792969 519.847656 78.101562 520.5 78.464844 521.125 C 78.824219 521.75 79.242188 522.339844 79.707031 522.890625 C 80.175781 523.441406 80.6875 523.949219 81.242188 524.410156 C 81.796875 524.871094 82.390625 525.28125 83.019531 525.636719 C 83.644531 525.992188 84.300781 526.292969 84.980469 526.535156 C 85.664062 526.777344 86.359375 526.957031 87.074219 527.074219 L 116.933594 531.988281 C 120.441406 543.886719 125.160156 555.28125 131.085938 566.175781 L 113.515625 590.75 C 113.097656 591.335938 112.730469 591.957031 112.421875 592.605469 C 112.109375 593.257812 111.859375 593.929688 111.667969 594.625 C 111.476562 595.320312 111.347656 596.027344 111.28125 596.746094 C 111.210938 597.464844 111.207031 598.183594 111.265625 598.902344 C 111.328125 599.621094 111.449219 600.328125 111.632812 601.027344 C 111.816406 601.722656 112.058594 602.398438 112.363281 603.054688 C 112.664062 603.710938 113.023438 604.332031 113.433594 604.921875 C 113.847656 605.515625 114.308594 606.066406 114.820312 606.578125 L 161.167969 652.925781 C 161.679688 653.4375 162.230469 653.898438 162.820312 654.308594 C 163.414062 654.722656 164.035156 655.082031 164.691406 655.382812 C 165.34375 655.6875 166.019531 655.929688 166.71875 656.113281 C 167.414062 656.296875 168.125 656.417969 168.84375 656.476562 C 169.5625 656.535156 170.28125 656.53125 171 656.464844 C 171.714844 656.398438 172.421875 656.269531 173.117188 656.078125 C 173.8125 655.886719 174.488281 655.632812 175.136719 655.324219 C 175.789062 655.011719 176.40625 654.648438 176.996094 654.230469 L 201.570312 636.65625 C 212.464844 642.585938 223.859375 647.304688 235.753906 650.8125 L 240.671875 680.671875 C 240.789062 681.386719 240.96875 682.082031 241.210938 682.761719 C 241.453125 683.445312 241.75 684.097656 242.109375 684.726562 C 242.464844 685.355469 242.875 685.945312 243.335938 686.503906 C 243.796875 687.058594 244.304688 687.570312 244.855469 688.039062 C 245.40625 688.503906 245.996094 688.917969 246.617188 689.28125 C 247.242188 689.644531 247.894531 689.949219 248.574219 690.199219 C 249.253906 690.445312 249.949219 690.632812 250.660156 690.757812 C 251.371094 690.882812 252.089844 690.945312 252.8125 690.945312 L 318.328125 690.945312 C 319.050781 690.945312 319.769531 690.882812 320.480469 690.757812 C 321.191406 690.632812 321.886719 690.445312 322.566406 690.199219 C 323.246094 689.949219 323.894531 689.644531 324.519531 689.28125 C 325.144531 688.917969 325.734375 688.503906 326.285156 688.039062 C 326.835938 687.570312 327.34375 687.058594 327.804688 686.503906 C 328.265625 685.945312 328.675781 685.355469 329.03125 684.726562 C 329.390625 684.097656 329.6875 683.445312 329.929688 682.761719 C 330.171875 682.082031 330.351562 681.386719 330.46875 680.671875 L 335.382812 650.8125 C 347.28125 647.304688 358.675781 642.585938 369.570312 636.65625 L 394.144531 654.230469 C 394.730469 654.648438 395.351562 655.011719 396 655.324219 C 396.652344 655.632812 397.328125 655.886719 398.023438 656.078125 C 398.71875 656.269531 399.421875 656.398438 400.140625 656.464844 C 400.859375 656.53125 401.578125 656.535156 402.296875 656.476562 C 403.015625 656.417969 403.722656 656.296875 404.421875 656.113281 C 405.117188 655.929688 405.796875 655.6875 406.449219 655.382812 C 407.105469 655.082031 407.726562 654.722656 408.320312 654.308594 C 408.910156 653.898438 409.460938 653.4375 409.972656 652.925781 L 456.320312 606.578125 C 456.832031 606.066406 457.292969 605.515625 457.703125 604.921875 C 458.117188 604.332031 458.476562 603.710938 458.777344 603.054688 C 459.082031 602.398438 459.324219 601.722656 459.507812 601.027344 C 459.691406 600.328125 459.8125 599.621094 459.871094 598.902344 C 459.933594 598.183594 459.929688 597.464844 459.859375 596.746094 C 459.792969 596.027344 459.664062 595.320312 459.472656 594.625 C 459.28125 593.929688 459.027344 593.257812 458.71875 592.605469 C 458.40625 591.957031 458.042969 591.335938 457.625 590.75 L 440.050781 566.175781 C 445.980469 555.28125 450.699219 543.886719 454.207031 531.988281 L 484.066406 527.074219 C 484.78125 526.957031 485.476562 526.777344 486.15625 526.535156 C 486.839844 526.292969 487.492188 525.992188 488.121094 525.636719 C 488.75 525.28125 489.34375 524.871094 489.898438 524.410156 C 490.453125 523.949219 490.964844 523.441406 491.433594 522.890625 C 491.898438 522.339844 492.3125 521.75 492.675781 521.125 C 493.039062 520.5 493.34375 519.847656 493.59375 519.171875 C 493.839844 518.492188 494.027344 517.796875 494.152344 517.085938 C 494.277344 516.375 494.339844 515.65625 494.339844 514.933594 L 494.339844 449.539062 C 494.34375 448.824219 494.285156 448.117188 494.164062 447.410156 C 494.046875 446.707031 493.867188 446.019531 493.625 445.347656 C 493.386719 444.675781 493.089844 444.027344 492.738281 443.40625 C 492.382812 442.789062 491.980469 442.203125 491.527344 441.652344 C 491.070312 441.101562 490.574219 440.59375 490.03125 440.128906 C 489.488281 439.667969 488.90625 439.253906 488.292969 438.890625 C 487.679688 438.527344 487.035156 438.222656 486.367188 437.972656 C 485.699219 437.71875 485.015625 437.53125 484.3125 437.398438 Z M 470.011719 504.660156 L 442.632812 509.234375 C 441.457031 509.4375 440.332031 509.804688 439.261719 510.339844 C 438.191406 510.871094 437.21875 511.546875 436.347656 512.363281 C 435.472656 513.179688 434.734375 514.101562 434.132812 515.136719 C 433.53125 516.167969 433.085938 517.261719 432.800781 518.425781 C 429.144531 533.414062 423.3125 547.503906 415.304688 560.695312 C 414.679688 561.722656 414.214844 562.816406 413.914062 563.980469 C 413.609375 565.140625 413.480469 566.324219 413.523438 567.527344 C 413.566406 568.726562 413.78125 569.898438 414.167969 571.035156 C 414.554688 572.171875 415.097656 573.230469 415.796875 574.210938 L 431.941406 596.820312 L 400.214844 628.449219 L 377.605469 612.304688 C 376.625 611.605469 375.566406 611.0625 374.429688 610.675781 C 373.292969 610.289062 372.121094 610.074219 370.921875 610.03125 C 369.71875 609.984375 368.539062 610.117188 367.375 610.417969 C 366.210938 610.722656 365.117188 611.1875 364.089844 611.8125 C 350.898438 619.820312 336.808594 625.652344 321.820312 629.308594 C 320.65625 629.59375 319.5625 630.035156 318.53125 630.640625 C 317.5 631.242188 316.574219 631.980469 315.757812 632.855469 C 314.941406 633.726562 314.265625 634.699219 313.734375 635.769531 C 313.203125 636.839844 312.832031 637.960938 312.628906 639.140625 L 308.054688 666.613281 L 263.328125 666.613281 L 258.660156 639.238281 C 258.453125 638.058594 258.085938 636.9375 257.554688 635.867188 C 257.019531 634.796875 256.34375 633.824219 255.53125 632.953125 C 254.714844 632.078125 253.789062 631.339844 252.757812 630.738281 C 251.726562 630.132812 250.628906 629.691406 249.46875 629.40625 C 234.476562 625.75 220.386719 619.917969 207.199219 611.910156 C 206.171875 611.285156 205.074219 610.820312 203.914062 610.519531 C 202.75 610.214844 201.566406 610.085938 200.367188 610.128906 C 199.164062 610.171875 197.996094 610.386719 196.855469 610.773438 C 195.71875 611.160156 194.660156 611.703125 193.683594 612.402344 L 171.070312 628.546875 L 139.542969 596.820312 L 155.6875 574.210938 C 156.386719 573.230469 156.925781 572.171875 157.316406 571.035156 C 157.703125 569.898438 157.917969 568.726562 157.960938 567.527344 C 158.003906 566.324219 157.875 565.140625 157.570312 563.980469 C 157.269531 562.816406 156.804688 561.722656 156.179688 560.695312 C 148.171875 547.503906 142.339844 533.414062 138.679688 518.425781 C 138.398438 517.261719 137.953125 516.167969 137.351562 515.136719 C 136.746094 514.101562 136.007812 513.179688 135.136719 512.363281 C 134.261719 511.546875 133.292969 510.871094 132.222656 510.339844 C 131.152344 509.804688 130.027344 509.4375 128.851562 509.234375 L 101.375 504.660156 L 101.375 459.933594 L 128.753906 455.265625 C 129.929688 455.058594 131.054688 454.691406 132.125 454.15625 C 133.195312 453.625 134.164062 452.949219 135.039062 452.132812 C 135.910156 451.316406 136.648438 450.394531 137.253906 449.363281 C 137.855469 448.332031 138.300781 447.234375 138.582031 446.074219 C 142.242188 431.082031 148.074219 416.992188 156.082031 403.804688 C 156.707031 402.777344 157.167969 401.679688 157.472656 400.519531 C 157.777344 399.355469 157.90625 398.171875 157.863281 396.972656 C 157.820312 395.769531 157.601562 394.601562 157.214844 393.460938 C 156.828125 392.324219 156.285156 391.265625 155.589844 390.285156 L 139.441406 367.675781 L 171.171875 336.148438 L 193.78125 352.292969 C 194.757812 352.992188 195.816406 353.53125 196.957031 353.917969 C 198.09375 354.304688 199.261719 354.523438 200.464844 354.566406 C 201.664062 354.609375 202.847656 354.480469 204.011719 354.175781 C 205.175781 353.871094 206.269531 353.410156 207.296875 352.785156 C 220.484375 344.777344 234.574219 338.945312 249.566406 335.285156 C 250.726562 335.003906 251.824219 334.558594 252.855469 333.957031 C 253.886719 333.351562 254.8125 332.613281 255.628906 331.742188 C 256.445312 330.867188 257.117188 329.898438 257.652344 328.828125 C 258.183594 327.757812 258.554688 326.632812 258.757812 325.457031 L 263.328125 297.980469 L 308.054688 297.980469 L 312.628906 325.359375 C 312.832031 326.535156 313.203125 327.660156 313.734375 328.730469 C 314.265625 329.796875 314.941406 330.769531 315.757812 331.644531 C 316.574219 332.515625 317.5 333.253906 318.53125 333.859375 C 319.5625 334.460938 320.65625 334.90625 321.820312 335.1875 C 336.808594 338.84375 350.898438 344.679688 364.089844 352.6875 C 365.117188 353.308594 366.210938 353.773438 367.375 354.078125 C 368.539062 354.382812 369.71875 354.511719 370.921875 354.46875 C 372.121094 354.421875 373.292969 354.207031 374.429688 353.820312 C 375.566406 353.433594 376.625 352.890625 377.605469 352.195312 L 400.214844 336.046875 L 431.84375 367.675781 L 415.699219 390.285156 C 415 391.265625 414.457031 392.324219 414.070312 393.460938 C 413.683594 394.601562 413.46875 395.769531 413.425781 396.972656 C 413.382812 398.171875 413.511719 399.355469 413.8125 400.519531 C 414.117188 401.679688 414.582031 402.777344 415.207031 403.804688 C 423.214844 416.992188 429.046875 431.082031 432.703125 446.074219 C 432.988281 447.234375 433.429688 448.332031 434.035156 449.363281 C 434.636719 450.394531 435.375 451.316406 436.25 452.132812 C 437.121094 452.949219 438.09375 453.625 439.164062 454.15625 C 440.234375 454.691406 441.355469 455.058594 442.535156 455.265625 L 469.910156 459.835938 Z M 470.011719 504.660156 " fill-opacity="1" fill-rule="nonzero"/></g><path fill="#f4f5f7" d="M 285.691406 371.707031 C 283.882812 371.707031 282.074219 371.75 280.265625 371.839844 C 278.457031 371.929688 276.652344 372.0625 274.851562 372.238281 C 273.050781 372.417969 271.257812 372.640625 269.464844 372.90625 C 267.675781 373.167969 265.894531 373.480469 264.117188 373.832031 C 262.34375 374.183594 260.578125 374.582031 258.820312 375.023438 C 257.066406 375.460938 255.320312 375.945312 253.589844 376.46875 C 251.859375 376.996094 250.140625 377.5625 248.4375 378.171875 C 246.730469 378.78125 245.042969 379.433594 243.371094 380.125 C 241.699219 380.816406 240.046875 381.550781 238.410156 382.324219 C 236.773438 383.097656 235.15625 383.914062 233.5625 384.765625 C 231.964844 385.617188 230.390625 386.511719 228.839844 387.441406 C 227.285156 388.371094 225.757812 389.339844 224.253906 390.34375 C 222.746094 391.351562 221.269531 392.390625 219.8125 393.46875 C 218.359375 394.550781 216.933594 395.660156 215.535156 396.808594 C 214.136719 397.957031 212.765625 399.140625 211.425781 400.355469 C 210.082031 401.570312 208.773438 402.820312 207.492188 404.097656 C 206.214844 405.378906 204.964844 406.6875 203.75 408.03125 C 202.535156 409.371094 201.355469 410.742188 200.207031 412.140625 C 199.058594 413.539062 197.945312 414.964844 196.867188 416.417969 C 195.789062 417.871094 194.746094 419.351562 193.742188 420.855469 C 192.734375 422.363281 191.765625 423.890625 190.835938 425.441406 C 189.90625 426.996094 189.015625 428.570312 188.160156 430.164062 C 187.308594 431.761719 186.496094 433.378906 185.71875 435.015625 C 184.945312 436.648438 184.214844 438.304688 183.519531 439.976562 C 182.828125 441.648438 182.175781 443.335938 181.566406 445.039062 C 180.957031 446.746094 180.390625 448.464844 179.863281 450.195312 C 179.339844 451.925781 178.855469 453.671875 178.417969 455.425781 C 177.976562 457.183594 177.582031 458.949219 177.226562 460.722656 C 176.875 462.496094 176.566406 464.28125 176.300781 466.070312 C 176.035156 467.859375 175.8125 469.65625 175.636719 471.457031 C 175.457031 473.257812 175.324219 475.0625 175.234375 476.871094 C 175.148438 478.679688 175.101562 480.488281 175.101562 482.296875 C 175.101562 484.109375 175.148438 485.917969 175.234375 487.722656 C 175.324219 489.53125 175.457031 491.335938 175.636719 493.136719 C 175.8125 494.9375 176.035156 496.734375 176.300781 498.523438 C 176.566406 500.316406 176.875 502.097656 177.226562 503.871094 C 177.582031 505.648438 177.976562 507.414062 178.417969 509.167969 C 178.855469 510.925781 179.339844 512.667969 179.863281 514.402344 C 180.390625 516.132812 180.957031 517.851562 181.566406 519.554688 C 182.175781 521.257812 182.828125 522.945312 183.519531 524.617188 C 184.214844 526.289062 184.945312 527.945312 185.71875 529.582031 C 186.496094 531.21875 187.308594 532.832031 188.160156 534.429688 C 189.015625 536.027344 189.90625 537.601562 190.835938 539.152344 C 191.765625 540.703125 192.734375 542.234375 193.742188 543.738281 C 194.746094 545.242188 195.789062 546.722656 196.867188 548.175781 C 197.945312 549.628906 199.058594 551.054688 200.207031 552.457031 C 201.355469 553.855469 202.535156 555.222656 203.75 556.566406 C 204.964844 557.90625 206.214844 559.21875 207.492188 560.496094 C 208.773438 561.777344 210.082031 563.023438 211.425781 564.238281 C 212.765625 565.457031 214.136719 566.636719 215.535156 567.785156 C 216.933594 568.933594 218.359375 570.046875 219.8125 571.125 C 221.269531 572.203125 222.746094 573.246094 224.253906 574.25 C 225.757812 575.253906 227.285156 576.222656 228.839844 577.152344 C 230.390625 578.085938 231.964844 578.976562 233.5625 579.828125 C 235.15625 580.683594 236.773438 581.496094 238.410156 582.269531 C 240.046875 583.042969 241.699219 583.777344 243.371094 584.46875 C 245.042969 585.164062 246.730469 585.8125 248.4375 586.421875 C 250.140625 587.03125 251.859375 587.601562 253.589844 588.125 C 255.320312 588.652344 257.066406 589.132812 258.820312 589.574219 C 260.578125 590.011719 262.34375 590.410156 264.117188 590.761719 C 265.894531 591.117188 267.675781 591.425781 269.464844 591.691406 C 271.257812 591.957031 273.050781 592.179688 274.851562 592.355469 C 276.652344 592.53125 278.457031 592.667969 280.265625 592.753906 C 282.074219 592.84375 283.882812 592.886719 285.691406 592.886719 C 287.503906 592.886719 289.3125 592.84375 291.121094 592.753906 C 292.925781 592.667969 294.730469 592.53125 296.53125 592.355469 C 298.332031 592.179688 300.128906 591.957031 301.917969 591.691406 C 303.710938 591.425781 305.492188 591.117188 307.269531 590.761719 C 309.042969 590.410156 310.808594 590.011719 312.5625 589.574219 C 314.320312 589.132812 316.0625 588.652344 317.796875 588.125 C 319.527344 587.601562 321.246094 587.03125 322.949219 586.421875 C 324.652344 585.8125 326.339844 585.164062 328.015625 584.46875 C 329.6875 583.777344 331.339844 583.042969 332.976562 582.269531 C 334.613281 581.496094 336.230469 580.683594 337.824219 579.828125 C 339.421875 578.976562 340.996094 578.085938 342.546875 577.152344 C 344.101562 576.222656 345.628906 575.253906 347.132812 574.25 C 348.636719 573.246094 350.117188 572.203125 351.570312 571.125 C 353.023438 570.046875 354.453125 568.933594 355.851562 567.785156 C 357.25 566.636719 358.621094 565.457031 359.960938 564.238281 C 361.300781 563.023438 362.613281 561.777344 363.890625 560.496094 C 365.171875 559.21875 366.417969 557.90625 367.636719 556.566406 C 368.851562 555.222656 370.03125 553.855469 371.179688 552.457031 C 372.328125 551.054688 373.441406 549.628906 374.519531 548.175781 C 375.597656 546.722656 376.640625 545.242188 377.644531 543.738281 C 378.652344 542.234375 379.617188 540.703125 380.550781 539.152344 C 381.480469 537.601562 382.371094 536.027344 383.226562 534.429688 C 384.078125 532.832031 384.890625 531.21875 385.664062 529.582031 C 386.4375 527.945312 387.171875 526.289062 387.863281 524.617188 C 388.558594 522.945312 389.207031 521.257812 389.820312 519.554688 C 390.429688 517.851562 390.996094 516.132812 391.519531 514.402344 C 392.046875 512.667969 392.527344 510.925781 392.96875 509.167969 C 393.410156 507.414062 393.804688 505.648438 394.15625 503.871094 C 394.511719 502.097656 394.820312 500.316406 395.085938 498.523438 C 395.351562 496.734375 395.574219 494.9375 395.75 493.136719 C 395.929688 491.335938 396.0625 489.53125 396.148438 487.722656 C 396.238281 485.917969 396.28125 484.109375 396.28125 482.296875 C 396.28125 480.488281 396.234375 478.679688 396.144531 476.875 C 396.054688 475.066406 395.917969 473.261719 395.738281 471.460938 C 395.558594 469.660156 395.335938 467.867188 395.070312 466.078125 C 394.804688 464.289062 394.492188 462.503906 394.136719 460.730469 C 393.785156 458.957031 393.386719 457.191406 392.945312 455.4375 C 392.503906 453.683594 392.019531 451.941406 391.492188 450.207031 C 390.96875 448.476562 390.398438 446.761719 389.789062 445.058594 C 389.175781 443.355469 388.527344 441.667969 387.832031 439.996094 C 387.140625 438.324219 386.40625 436.671875 385.628906 435.035156 C 384.855469 433.402344 384.042969 431.785156 383.1875 430.191406 C 382.335938 428.59375 381.441406 427.019531 380.511719 425.46875 C 379.582031 423.917969 378.613281 422.390625 377.609375 420.886719 C 376.601562 419.382812 375.558594 417.902344 374.480469 416.449219 C 373.402344 414.996094 372.289062 413.570312 371.144531 412.171875 C 369.996094 410.773438 368.8125 409.40625 367.597656 408.0625 C 366.382812 406.722656 365.136719 405.414062 363.855469 404.132812 C 362.578125 402.855469 361.265625 401.609375 359.925781 400.394531 C 358.585938 399.175781 357.214844 397.996094 355.816406 396.847656 C 354.417969 395.699219 352.992188 394.585938 351.539062 393.507812 C 350.085938 392.429688 348.609375 391.386719 347.105469 390.382812 C 345.601562 389.378906 344.074219 388.410156 342.519531 387.476562 C 340.96875 386.546875 339.394531 385.65625 337.800781 384.800781 C 336.207031 383.949219 334.589844 383.132812 332.953125 382.359375 C 331.320312 381.585938 329.667969 380.851562 327.996094 380.160156 C 326.324219 379.464844 324.636719 378.8125 322.933594 378.203125 C 321.230469 377.59375 319.511719 377.023438 317.78125 376.496094 C 316.050781 375.96875 314.308594 375.488281 312.554688 375.046875 C 310.796875 374.605469 309.035156 374.207031 307.257812 373.851562 C 305.484375 373.5 303.703125 373.1875 301.914062 372.921875 C 300.125 372.652344 298.328125 372.429688 296.527344 372.25 C 294.726562 372.070312 292.925781 371.9375 291.117188 371.847656 C 289.308594 371.753906 287.503906 371.710938 285.691406 371.707031 Z M 285.691406 568.3125 C 284.285156 568.3125 282.878906 568.277344 281.472656 568.207031 C 280.066406 568.140625 278.664062 568.035156 277.261719 567.898438 C 275.859375 567.761719 274.464844 567.589844 273.070312 567.382812 C 271.679688 567.175781 270.292969 566.933594 268.914062 566.660156 C 267.53125 566.386719 266.160156 566.078125 264.792969 565.734375 C 263.425781 565.390625 262.070312 565.015625 260.722656 564.609375 C 259.378906 564.199219 258.039062 563.757812 256.714844 563.285156 C 255.390625 562.808594 254.078125 562.304688 252.777344 561.765625 C 251.476562 561.226562 250.1875 560.65625 248.917969 560.054688 C 247.644531 559.453125 246.386719 558.820312 245.144531 558.15625 C 243.902344 557.492188 242.679688 556.796875 241.472656 556.074219 C 240.265625 555.351562 239.074219 554.597656 237.90625 553.816406 C 236.734375 553.035156 235.585938 552.222656 234.453125 551.386719 C 233.324219 550.546875 232.214844 549.679688 231.125 548.789062 C 230.039062 547.894531 228.972656 546.976562 227.929688 546.03125 C 226.886719 545.085938 225.867188 544.113281 224.871094 543.121094 C 223.875 542.125 222.90625 541.105469 221.960938 540.0625 C 221.015625 539.019531 220.09375 537.953125 219.203125 536.863281 C 218.308594 535.777344 217.445312 534.667969 216.605469 533.535156 C 215.765625 532.40625 214.957031 531.253906 214.175781 530.085938 C 213.390625 528.914062 212.640625 527.726562 211.914062 526.519531 C 211.191406 525.3125 210.5 524.085938 209.835938 522.84375 C 209.171875 521.601562 208.539062 520.347656 207.9375 519.074219 C 207.335938 517.800781 206.765625 516.515625 206.226562 515.214844 C 205.6875 513.914062 205.179688 512.601562 204.707031 511.273438 C 204.230469 509.949219 203.789062 508.613281 203.382812 507.265625 C 202.972656 505.917969 202.597656 504.5625 202.257812 503.199219 C 201.914062 501.832031 201.605469 500.460938 201.332031 499.078125 C 201.054688 497.699219 200.816406 496.3125 200.609375 494.917969 C 200.402344 493.527344 200.230469 492.128906 200.09375 490.730469 C 199.953125 489.328125 199.851562 487.925781 199.78125 486.519531 C 199.710938 485.113281 199.679688 483.707031 199.679688 482.296875 C 199.679688 480.890625 199.710938 479.484375 199.78125 478.078125 C 199.851562 476.671875 199.953125 475.269531 200.09375 473.867188 C 200.230469 472.464844 200.402344 471.070312 200.609375 469.675781 C 200.816406 468.285156 201.054688 466.898438 201.332031 465.515625 C 201.605469 464.136719 201.914062 462.761719 202.257812 461.398438 C 202.597656 460.03125 202.972656 458.675781 203.382812 457.328125 C 203.789062 455.980469 204.230469 454.644531 204.707031 453.320312 C 205.179688 451.996094 205.6875 450.683594 206.226562 449.382812 C 206.765625 448.082031 207.335938 446.792969 207.9375 445.523438 C 208.539062 444.25 209.171875 442.992188 209.835938 441.75 C 210.5 440.507812 211.191406 439.285156 211.914062 438.078125 C 212.640625 436.871094 213.390625 435.679688 214.175781 434.511719 C 214.957031 433.339844 215.765625 432.191406 216.605469 431.058594 C 217.445312 429.929688 218.308594 428.820312 219.203125 427.730469 C 220.09375 426.640625 221.015625 425.578125 221.960938 424.535156 C 222.90625 423.492188 223.875 422.472656 224.871094 421.476562 C 225.867188 420.480469 226.886719 419.511719 227.929688 418.566406 C 228.972656 417.621094 230.039062 416.699219 231.125 415.808594 C 232.214844 414.914062 233.324219 414.046875 234.453125 413.210938 C 235.585938 412.371094 236.734375 411.5625 237.90625 410.777344 C 239.074219 409.996094 240.265625 409.246094 241.472656 408.519531 C 242.679688 407.796875 243.902344 407.101562 245.144531 406.441406 C 246.386719 405.777344 247.644531 405.144531 248.917969 404.542969 C 250.1875 403.941406 251.476562 403.371094 252.777344 402.832031 C 254.078125 402.292969 255.390625 401.785156 256.714844 401.3125 C 258.039062 400.835938 259.378906 400.394531 260.722656 399.988281 C 262.070312 399.578125 263.425781 399.203125 264.792969 398.859375 C 266.160156 398.519531 267.53125 398.210938 268.914062 397.9375 C 270.292969 397.660156 271.679688 397.421875 273.070312 397.214844 C 274.464844 397.007812 275.859375 396.835938 277.261719 396.699219 C 278.664062 396.558594 280.066406 396.457031 281.472656 396.386719 C 282.878906 396.316406 284.285156 396.28125 285.691406 396.28125 C 287.101562 396.28125 288.507812 396.316406 289.914062 396.386719 C 291.320312 396.457031 292.722656 396.558594 294.125 396.699219 C 295.523438 396.835938 296.921875 397.007812 298.3125 397.214844 C 299.707031 397.421875 301.09375 397.660156 302.472656 397.9375 C 303.855469 398.210938 305.226562 398.519531 306.59375 398.859375 C 307.957031 399.203125 309.3125 399.578125 310.660156 399.988281 C 312.007812 400.394531 313.34375 400.835938 314.671875 401.3125 C 315.996094 401.785156 317.308594 402.292969 318.609375 402.832031 C 319.910156 403.371094 321.195312 403.941406 322.46875 404.542969 C 323.742188 405.144531 325 405.777344 326.238281 406.441406 C 327.480469 407.101562 328.707031 407.796875 329.914062 408.519531 C 331.121094 409.246094 332.308594 409.996094 333.480469 410.777344 C 334.652344 411.5625 335.800781 412.371094 336.933594 413.210938 C 338.0625 414.046875 339.171875 414.914062 340.261719 415.808594 C 341.347656 416.699219 342.414062 417.621094 343.457031 418.566406 C 344.5 419.511719 345.519531 420.480469 346.515625 421.476562 C 347.507812 422.472656 348.480469 423.492188 349.425781 424.535156 C 350.371094 425.578125 351.289062 426.640625 352.183594 427.730469 C 353.074219 428.820312 353.941406 429.929688 354.78125 431.058594 C 355.617188 432.191406 356.429688 433.339844 357.210938 434.511719 C 357.992188 435.679688 358.746094 436.871094 359.46875 438.078125 C 360.195312 439.285156 360.886719 440.507812 361.550781 441.75 C 362.214844 442.992188 362.847656 444.25 363.449219 445.523438 C 364.050781 446.792969 364.621094 448.082031 365.160156 449.382812 C 365.699219 450.683594 366.207031 451.996094 366.679688 453.320312 C 367.152344 454.644531 367.59375 455.980469 368.003906 457.328125 C 368.414062 458.675781 368.789062 460.03125 369.128906 461.398438 C 369.472656 462.761719 369.78125 464.136719 370.054688 465.515625 C 370.328125 466.898438 370.570312 468.285156 370.777344 469.675781 C 370.984375 471.070312 371.15625 472.464844 371.292969 473.867188 C 371.429688 475.269531 371.535156 476.671875 371.605469 478.078125 C 371.671875 479.484375 371.707031 480.890625 371.707031 482.296875 C 371.707031 483.707031 371.671875 485.113281 371.605469 486.519531 C 371.535156 487.925781 371.429688 489.328125 371.292969 490.730469 C 371.15625 492.128906 370.984375 493.527344 370.777344 494.917969 C 370.570312 496.3125 370.328125 497.699219 370.054688 499.078125 C 369.78125 500.460938 369.472656 501.832031 369.128906 503.199219 C 368.789062 504.5625 368.414062 505.917969 368.003906 507.265625 C 367.59375 508.613281 367.152344 509.949219 366.679688 511.273438 C 366.207031 512.601562 365.699219 513.914062 365.160156 515.214844 C 364.621094 516.515625 364.050781 517.800781 363.449219 519.074219 C 362.847656 520.347656 362.214844 521.601562 361.550781 522.84375 C 360.886719 524.085938 360.195312 525.3125 359.46875 526.519531 C 358.746094 527.726562 357.992188 528.914062 357.210938 530.085938 C 356.429688 531.253906 355.617188 532.40625 354.78125 533.535156 C 353.941406 534.667969 353.074219 535.777344 352.183594 536.863281 C 351.289062 537.953125 350.371094 539.019531 349.425781 540.0625 C 348.480469 541.105469 347.507812 542.125 346.515625 543.121094 C 345.519531 544.113281 344.5 545.085938 343.457031 546.03125 C 342.414062 546.976562 341.347656 547.894531 340.261719 548.789062 C 339.171875 549.679688 338.0625 550.546875 336.933594 551.386719 C 335.800781 552.222656 334.652344 553.035156 333.480469 553.816406 C 332.308594 554.597656 331.121094 555.351562 329.914062 556.074219 C 328.707031 556.796875 327.480469 557.492188 326.238281 558.15625 C 325 558.820312 323.742188 559.453125 322.46875 560.054688 C 321.195312 560.65625 319.910156 561.226562 318.609375 561.765625 C 317.308594 562.304688 315.996094 562.808594 314.671875 563.285156 C 313.34375 563.757812 312.007812 564.199219 310.660156 564.609375 C 309.3125 565.015625 307.957031 565.390625 306.59375 565.734375 C 305.226562 566.078125 303.855469 566.386719 302.472656 566.660156 C 301.09375 566.933594 299.707031 567.175781 298.3125 567.382812 C 296.921875 567.589844 295.523438 567.761719 294.125 567.898438 C 292.722656 568.035156 291.320312 568.140625 289.914062 568.207031 C 288.507812 568.277344 287.101562 568.3125 285.691406 568.3125 Z M 285.691406 568.3125 " fill-opacity="1" fill-rule="nonzero"/><g clip-path="url(#c14061c621)"><path fill="#f4f5f7" d="M 680.917969 179.355469 L 665.066406 176.722656 C 663.1875 170.886719 660.84375 165.242188 658.039062 159.792969 L 667.402344 146.691406 C 667.820312 146.105469 668.1875 145.488281 668.496094 144.835938 C 668.804688 144.183594 669.058594 143.511719 669.25 142.816406 C 669.441406 142.121094 669.570312 141.414062 669.636719 140.695312 C 669.707031 139.976562 669.710938 139.261719 669.648438 138.539062 C 669.589844 137.820312 669.46875 137.113281 669.285156 136.417969 C 669.101562 135.71875 668.859375 135.042969 668.554688 134.386719 C 668.253906 133.734375 667.894531 133.109375 667.480469 132.519531 C 667.070312 131.925781 666.609375 131.375 666.097656 130.867188 L 637.125 101.890625 C 636.613281 101.382812 636.0625 100.921875 635.472656 100.507812 C 634.878906 100.09375 634.257812 99.738281 633.601562 99.433594 C 632.949219 99.132812 632.269531 98.886719 631.574219 98.703125 C 630.875 98.519531 630.167969 98.398438 629.449219 98.339844 C 628.730469 98.28125 628.011719 98.285156 627.292969 98.351562 C 626.574219 98.417969 625.871094 98.550781 625.175781 98.742188 C 624.480469 98.933594 623.804688 99.183594 623.15625 99.496094 C 622.503906 99.804688 621.882812 100.167969 621.296875 100.589844 L 608.199219 109.953125 C 602.746094 107.144531 597.101562 104.800781 591.265625 102.921875 L 588.636719 87.074219 C 588.519531 86.359375 588.339844 85.664062 588.097656 84.980469 C 587.855469 84.300781 587.554688 83.644531 587.199219 83.019531 C 586.84375 82.390625 586.433594 81.796875 585.972656 81.242188 C 585.511719 80.683594 585.003906 80.175781 584.453125 79.707031 C 583.902344 79.242188 583.3125 78.824219 582.6875 78.460938 C 582.0625 78.101562 581.410156 77.792969 580.734375 77.546875 C 580.054688 77.296875 579.359375 77.113281 578.648438 76.984375 C 577.9375 76.859375 577.21875 76.796875 576.496094 76.800781 L 535.554688 76.800781 C 534.832031 76.796875 534.113281 76.859375 533.402344 76.984375 C 532.691406 77.113281 531.996094 77.296875 531.316406 77.546875 C 530.636719 77.792969 529.988281 78.101562 529.363281 78.460938 C 528.738281 78.824219 528.148438 79.242188 527.597656 79.707031 C 527.046875 80.175781 526.539062 80.683594 526.078125 81.242188 C 525.617188 81.796875 525.207031 82.390625 524.851562 83.019531 C 524.492188 83.644531 524.195312 84.300781 523.953125 84.980469 C 523.710938 85.664062 523.53125 86.359375 523.414062 87.074219 L 520.785156 102.921875 C 514.945312 104.800781 509.300781 107.144531 503.851562 109.953125 L 490.75 100.589844 C 490.164062 100.167969 489.546875 99.804688 488.894531 99.496094 C 488.242188 99.183594 487.570312 98.933594 486.875 98.742188 C 486.179688 98.550781 485.472656 98.417969 484.753906 98.351562 C 484.039062 98.285156 483.320312 98.28125 482.601562 98.339844 C 481.882812 98.398438 481.171875 98.519531 480.476562 98.703125 C 479.777344 98.886719 479.101562 99.132812 478.449219 99.433594 C 477.792969 99.738281 477.167969 100.09375 476.578125 100.507812 C 475.988281 100.921875 475.4375 101.382812 474.925781 101.890625 L 445.949219 130.867188 C 445.441406 131.375 444.980469 131.925781 444.566406 132.519531 C 444.15625 133.109375 443.796875 133.734375 443.492188 134.386719 C 443.191406 135.042969 442.949219 135.71875 442.761719 136.417969 C 442.578125 137.113281 442.457031 137.820312 442.398438 138.539062 C 442.339844 139.261719 442.34375 139.976562 442.410156 140.695312 C 442.480469 141.414062 442.609375 142.121094 442.800781 142.816406 C 442.992188 143.511719 443.242188 144.183594 443.554688 144.835938 C 443.863281 145.488281 444.230469 146.105469 444.648438 146.691406 L 454.011719 159.792969 C 451.203125 165.242188 448.859375 170.886719 446.984375 176.722656 L 431.132812 179.355469 C 430.417969 179.472656 429.722656 179.652344 429.039062 179.894531 C 428.359375 180.136719 427.707031 180.433594 427.078125 180.792969 C 426.449219 181.148438 425.855469 181.558594 425.300781 182.019531 C 424.746094 182.480469 424.234375 182.988281 423.765625 183.539062 C 423.300781 184.089844 422.882812 184.679688 422.523438 185.304688 C 422.160156 185.925781 421.851562 186.578125 421.605469 187.257812 C 421.355469 187.9375 421.171875 188.632812 421.046875 189.34375 C 420.917969 190.054688 420.859375 190.773438 420.859375 191.496094 L 420.859375 232.4375 C 420.859375 233.160156 420.917969 233.878906 421.046875 234.589844 C 421.171875 235.300781 421.355469 235.996094 421.605469 236.675781 C 421.851562 237.351562 422.160156 238.003906 422.523438 238.628906 C 422.882812 239.253906 423.300781 239.84375 423.765625 240.394531 C 424.234375 240.945312 424.746094 241.453125 425.300781 241.914062 C 425.855469 242.375 426.449219 242.785156 427.078125 243.140625 C 427.707031 243.496094 428.359375 243.796875 429.039062 244.039062 C 429.722656 244.277344 430.417969 244.460938 431.132812 244.578125 L 446.984375 247.207031 C 448.859375 253.042969 451.203125 258.6875 454.011719 264.140625 L 444.648438 277.238281 C 444.230469 277.824219 443.863281 278.445312 443.554688 279.09375 C 443.242188 279.746094 442.992188 280.417969 442.800781 281.113281 C 442.609375 281.808594 442.480469 282.515625 442.410156 283.234375 C 442.34375 283.953125 442.339844 284.671875 442.398438 285.390625 C 442.457031 286.109375 442.578125 286.816406 442.761719 287.515625 C 442.949219 288.210938 443.191406 288.886719 443.492188 289.542969 C 443.796875 290.199219 444.15625 290.820312 444.566406 291.414062 C 444.980469 292.003906 445.441406 292.554688 445.949219 293.066406 L 474.925781 322.039062 C 475.4375 322.550781 475.988281 323.011719 476.578125 323.421875 C 477.167969 323.835938 477.792969 324.195312 478.449219 324.496094 C 479.101562 324.800781 479.777344 325.042969 480.476562 325.226562 C 481.171875 325.410156 481.882812 325.53125 482.601562 325.589844 C 483.320312 325.652344 484.039062 325.644531 484.753906 325.578125 C 485.472656 325.511719 486.179688 325.382812 486.875 325.191406 C 487.570312 325 488.242188 324.746094 488.894531 324.4375 C 489.546875 324.125 490.164062 323.761719 490.75 323.34375 L 503.851562 313.980469 C 509.300781 316.785156 514.945312 319.128906 520.785156 321.007812 L 523.414062 336.859375 C 523.53125 337.570312 523.710938 338.269531 523.953125 338.949219 C 524.195312 339.632812 524.492188 340.285156 524.851562 340.914062 C 525.207031 341.542969 525.617188 342.132812 526.078125 342.691406 C 526.539062 343.246094 527.046875 343.757812 527.597656 344.222656 C 528.148438 344.691406 528.738281 345.105469 529.363281 345.46875 C 529.988281 345.832031 530.636719 346.136719 531.316406 346.386719 C 531.996094 346.632812 532.691406 346.820312 533.402344 346.945312 C 534.113281 347.070312 534.832031 347.132812 535.554688 347.132812 L 576.496094 347.132812 C 577.21875 347.132812 577.9375 347.070312 578.648438 346.945312 C 579.359375 346.820312 580.054688 346.632812 580.734375 346.386719 C 581.410156 346.136719 582.0625 345.832031 582.6875 345.46875 C 583.3125 345.105469 583.902344 344.691406 584.453125 344.222656 C 585.003906 343.757812 585.511719 343.246094 585.972656 342.691406 C 586.433594 342.132812 586.84375 341.542969 587.199219 340.914062 C 587.554688 340.285156 587.855469 339.632812 588.097656 338.949219 C 588.339844 338.269531 588.519531 337.570312 588.636719 336.859375 L 591.265625 321.007812 C 597.101562 319.128906 602.746094 316.785156 608.199219 313.980469 L 621.296875 323.34375 C 621.882812 323.761719 622.503906 324.125 623.15625 324.4375 C 623.804688 324.746094 624.480469 325 625.175781 325.191406 C 625.871094 325.382812 626.574219 325.511719 627.292969 325.578125 C 628.011719 325.644531 628.730469 325.652344 629.449219 325.589844 C 630.167969 325.53125 630.875 325.410156 631.574219 325.226562 C 632.273438 325.042969 632.949219 324.800781 633.601562 324.496094 C 634.257812 324.195312 634.878906 323.835938 635.472656 323.421875 C 636.0625 323.011719 636.613281 322.550781 637.125 322.039062 L 666.097656 293.066406 C 666.609375 292.554688 667.070312 292.003906 667.480469 291.414062 C 667.894531 290.820312 668.253906 290.199219 668.554688 289.542969 C 668.859375 288.886719 669.101562 288.210938 669.285156 287.515625 C 669.46875 286.816406 669.589844 286.109375 669.648438 285.390625 C 669.710938 284.671875 669.707031 283.953125 669.636719 283.234375 C 669.570312 282.515625 669.441406 281.808594 669.25 281.113281 C 669.058594 280.417969 668.804688 279.746094 668.496094 279.09375 C 668.1875 278.445312 667.820312 277.824219 667.402344 277.238281 L 658.039062 264.140625 C 660.84375 258.6875 663.1875 253.042969 665.066406 247.207031 L 680.917969 244.578125 C 681.628906 244.460938 682.328125 244.277344 683.007812 244.039062 C 683.691406 243.796875 684.34375 243.496094 684.972656 243.140625 C 685.601562 242.785156 686.191406 242.375 686.75 241.914062 C 687.304688 241.453125 687.816406 240.945312 688.28125 240.394531 C 688.75 239.84375 689.164062 239.253906 689.527344 238.628906 C 689.890625 238.003906 690.195312 237.351562 690.445312 236.675781 C 690.691406 235.996094 690.878906 235.300781 691.003906 234.589844 C 691.128906 233.875 691.191406 233.160156 691.191406 232.4375 L 691.191406 191.496094 C 691.191406 190.773438 691.128906 190.054688 691.003906 189.34375 C 690.878906 188.632812 690.691406 187.9375 690.445312 187.257812 C 690.195312 186.578125 689.890625 185.925781 689.527344 185.300781 C 689.164062 184.679688 688.75 184.089844 688.28125 183.539062 C 687.816406 182.988281 687.304688 182.480469 686.75 182.019531 C 686.191406 181.558594 685.601562 181.148438 684.972656 180.792969 C 684.34375 180.433594 683.691406 180.136719 683.007812 179.894531 C 682.328125 179.652344 681.628906 179.472656 680.917969 179.355469 Z M 666.613281 222.042969 L 653.34375 224.253906 C 652.167969 224.457031 651.042969 224.828125 649.972656 225.359375 C 648.902344 225.894531 647.933594 226.566406 647.058594 227.382812 C 646.1875 228.199219 645.449219 229.125 644.84375 230.15625 C 644.242188 231.1875 643.796875 232.285156 643.515625 233.445312 C 641.3125 242.390625 637.8125 250.792969 633.019531 258.660156 C 632.398438 259.6875 631.933594 260.785156 631.632812 261.949219 C 631.332031 263.113281 631.203125 264.292969 631.25 265.496094 C 631.296875 266.695312 631.515625 267.867188 631.902344 269.003906 C 632.292969 270.140625 632.835938 271.199219 633.535156 272.175781 L 641.351562 283.113281 L 627.097656 297.367188 L 616.160156 289.550781 C 615.183594 288.851562 614.125 288.308594 612.988281 287.917969 C 611.851562 287.527344 610.683594 287.3125 609.480469 287.265625 C 608.277344 287.21875 607.097656 287.347656 605.933594 287.648438 C 604.769531 287.949219 603.671875 288.410156 602.644531 289.035156 C 594.796875 293.796875 586.417969 297.269531 577.503906 299.453125 C 576.34375 299.738281 575.246094 300.183594 574.214844 300.785156 C 573.183594 301.390625 572.257812 302.128906 571.441406 303 C 570.625 303.871094 569.953125 304.84375 569.417969 305.914062 C 568.886719 306.984375 568.515625 308.109375 568.3125 309.285156 L 566.101562 322.554688 L 545.949219 322.554688 L 543.738281 309.285156 C 543.53125 308.109375 543.164062 306.984375 542.628906 305.914062 C 542.097656 304.84375 541.421875 303.871094 540.605469 303 C 539.789062 302.128906 538.867188 301.390625 537.835938 300.785156 C 536.804688 300.183594 535.707031 299.738281 534.546875 299.453125 C 525.632812 297.269531 517.25 293.796875 509.40625 289.035156 C 508.375 288.410156 507.28125 287.949219 506.117188 287.648438 C 504.953125 287.347656 503.769531 287.21875 502.570312 287.265625 C 501.367188 287.3125 500.199219 287.527344 499.0625 287.917969 C 497.921875 288.308594 496.867188 288.851562 495.886719 289.550781 L 484.953125 297.367188 L 470.699219 283.113281 L 478.511719 272.175781 C 479.210938 271.199219 479.757812 270.140625 480.144531 269.003906 C 480.535156 267.867188 480.753906 266.695312 480.796875 265.496094 C 480.84375 264.292969 480.714844 263.113281 480.414062 261.949219 C 480.113281 260.785156 479.652344 259.6875 479.027344 258.660156 C 474.269531 250.8125 470.796875 242.433594 468.609375 233.519531 C 468.324219 232.359375 467.882812 231.261719 467.277344 230.230469 C 466.675781 229.199219 465.9375 228.273438 465.0625 227.457031 C 464.191406 226.640625 463.21875 225.96875 462.148438 225.433594 C 461.082031 224.902344 459.957031 224.53125 458.777344 224.328125 L 445.507812 222.117188 L 445.507812 201.890625 L 458.777344 199.679688 C 459.957031 199.472656 461.082031 199.105469 462.148438 198.570312 C 463.21875 198.039062 464.191406 197.363281 465.0625 196.546875 C 465.9375 195.730469 466.675781 194.808594 467.277344 193.777344 C 467.882812 192.746094 468.324219 191.648438 468.609375 190.488281 C 470.789062 181.546875 474.261719 173.140625 479.027344 165.273438 C 479.652344 164.242188 480.113281 163.148438 480.414062 161.984375 C 480.714844 160.820312 480.84375 159.636719 480.796875 158.4375 C 480.753906 157.234375 480.535156 156.066406 480.144531 154.929688 C 479.757812 153.789062 479.210938 152.734375 478.511719 151.753906 L 470.699219 140.820312 L 484.953125 126.566406 L 495.886719 134.378906 C 496.867188 135.078125 497.921875 135.625 499.0625 136.011719 C 500.199219 136.402344 501.367188 136.621094 502.570312 136.664062 C 503.769531 136.710938 504.953125 136.585938 506.117188 136.28125 C 507.28125 135.980469 508.375 135.519531 509.40625 134.898438 C 517.25 130.136719 525.632812 126.664062 534.546875 124.476562 C 535.707031 124.191406 536.804688 123.75 537.835938 123.144531 C 538.867188 122.542969 539.789062 121.804688 540.605469 120.929688 C 541.421875 120.058594 542.097656 119.085938 542.628906 118.015625 C 543.164062 116.949219 543.53125 115.824219 543.738281 114.644531 L 545.949219 101.375 L 566.101562 101.375 L 568.3125 114.644531 C 568.515625 115.824219 568.886719 116.949219 569.417969 118.015625 C 569.953125 119.085938 570.625 120.058594 571.441406 120.929688 C 572.257812 121.804688 573.183594 122.542969 574.214844 123.144531 C 575.246094 123.75 576.34375 124.191406 577.503906 124.476562 C 586.417969 126.664062 594.796875 130.136719 602.644531 134.898438 C 603.671875 135.519531 604.769531 135.980469 605.933594 136.28125 C 607.097656 136.585938 608.277344 136.710938 609.480469 136.664062 C 610.683594 136.621094 611.851562 136.402344 612.988281 136.011719 C 614.125 135.625 615.183594 135.078125 616.160156 134.378906 L 627.097656 126.566406 L 641.351562 140.820312 L 633.535156 151.753906 C 632.835938 152.734375 632.292969 153.789062 631.902344 154.929688 C 631.515625 156.066406 631.296875 157.234375 631.25 158.4375 C 631.203125 159.636719 631.332031 160.820312 631.632812 161.984375 C 631.933594 163.148438 632.398438 164.242188 633.019531 165.273438 C 637.78125 173.117188 641.253906 181.5 643.441406 190.414062 C 643.722656 191.574219 644.167969 192.671875 644.769531 193.703125 C 645.375 194.734375 646.113281 195.65625 646.984375 196.472656 C 647.859375 197.289062 648.828125 197.964844 649.898438 198.496094 C 650.96875 199.03125 652.09375 199.398438 653.269531 199.605469 L 666.542969 201.816406 Z M 666.613281 222.042969 " fill-opacity="1" fill-rule="nonzero"/></g><path fill="#f4f5f7" d="M 556.023438 150.527344 C 554.011719 150.527344 552.003906 150.625 550.003906 150.824219 C 548 151.019531 546.011719 151.316406 544.039062 151.707031 C 542.066406 152.101562 540.117188 152.589844 538.191406 153.171875 C 536.265625 153.757812 534.371094 154.433594 532.511719 155.203125 C 530.652344 155.972656 528.835938 156.832031 527.0625 157.78125 C 525.289062 158.730469 523.5625 159.761719 521.890625 160.882812 C 520.21875 162 518.605469 163.195312 517.046875 164.472656 C 515.492188 165.75 514.003906 167.097656 512.582031 168.523438 C 511.15625 169.945312 509.808594 171.433594 508.53125 172.988281 C 507.253906 174.542969 506.058594 176.160156 504.941406 177.832031 C 503.820312 179.503906 502.789062 181.230469 501.839844 183.003906 C 500.890625 184.777344 500.03125 186.59375 499.261719 188.453125 C 498.492188 190.3125 497.816406 192.207031 497.230469 194.132812 C 496.648438 196.054688 496.160156 198.007812 495.765625 199.980469 C 495.375 201.953125 495.078125 203.941406 494.882812 205.945312 C 494.683594 207.945312 494.585938 209.953125 494.585938 211.964844 C 494.585938 213.976562 494.683594 215.984375 494.882812 217.988281 C 495.078125 219.992188 495.375 221.976562 495.765625 223.953125 C 496.160156 225.925781 496.648438 227.875 497.230469 229.800781 C 497.816406 231.726562 498.492188 233.617188 499.261719 235.476562 C 500.03125 237.335938 500.890625 239.152344 501.839844 240.929688 C 502.789062 242.703125 503.820312 244.425781 504.941406 246.097656 C 506.058594 247.773438 507.253906 249.386719 508.53125 250.941406 C 509.808594 252.496094 511.15625 253.988281 512.582031 255.410156 C 514.003906 256.832031 515.492188 258.183594 517.046875 259.457031 C 518.605469 260.734375 520.21875 261.933594 521.890625 263.050781 C 523.5625 264.167969 525.289062 265.203125 527.0625 266.148438 C 528.835938 267.097656 530.652344 267.957031 532.511719 268.726562 C 534.371094 269.5 536.265625 270.175781 538.191406 270.757812 C 540.117188 271.34375 542.066406 271.832031 544.039062 272.222656 C 546.011719 272.617188 548 272.910156 550.003906 273.109375 C 552.003906 273.304688 554.011719 273.40625 556.023438 273.40625 C 558.035156 273.40625 560.042969 273.304688 562.046875 273.109375 C 564.050781 272.910156 566.039062 272.617188 568.011719 272.222656 C 569.984375 271.832031 571.933594 271.34375 573.859375 270.757812 C 575.785156 270.175781 577.675781 269.5 579.535156 268.726562 C 581.394531 267.957031 583.210938 267.097656 584.988281 266.148438 C 586.761719 265.203125 588.484375 264.167969 590.160156 263.050781 C 591.832031 261.933594 593.445312 260.734375 595 259.457031 C 596.558594 258.183594 598.046875 256.832031 599.46875 255.410156 C 600.890625 253.988281 602.242188 252.496094 603.519531 250.941406 C 604.792969 249.386719 605.992188 247.773438 607.109375 246.097656 C 608.226562 244.425781 609.261719 242.703125 610.210938 240.929688 C 611.15625 239.152344 612.015625 237.335938 612.785156 235.476562 C 613.558594 233.617188 614.234375 231.726562 614.816406 229.800781 C 615.402344 227.875 615.890625 225.925781 616.28125 223.953125 C 616.675781 221.976562 616.972656 219.992188 617.167969 217.988281 C 617.363281 215.984375 617.464844 213.976562 617.464844 211.964844 C 617.464844 209.953125 617.363281 207.945312 617.167969 205.945312 C 616.972656 203.941406 616.675781 201.953125 616.285156 199.980469 C 615.890625 198.007812 615.402344 196.054688 614.816406 194.132812 C 614.234375 192.207031 613.558594 190.3125 612.785156 188.453125 C 612.015625 186.59375 611.15625 184.777344 610.210938 183.003906 C 609.261719 181.230469 608.226562 179.503906 607.109375 177.832031 C 605.992188 176.160156 604.792969 174.542969 603.519531 172.988281 C 602.242188 171.433594 600.890625 169.945312 599.46875 168.523438 C 598.046875 167.097656 596.558594 165.75 595 164.472656 C 593.445312 163.195312 591.832031 162 590.160156 160.882812 C 588.484375 159.761719 586.761719 158.730469 584.988281 157.78125 C 583.210938 156.832031 581.394531 155.972656 579.535156 155.203125 C 577.675781 154.433594 575.785156 153.757812 573.859375 153.171875 C 571.933594 152.589844 569.984375 152.101562 568.011719 151.707031 C 566.039062 151.316406 564.050781 151.019531 562.046875 150.824219 C 560.042969 150.625 558.035156 150.527344 556.023438 150.527344 Z M 556.023438 248.828125 C 554.816406 248.828125 553.613281 248.769531 552.410156 248.652344 C 551.210938 248.535156 550.015625 248.355469 548.832031 248.121094 C 547.648438 247.886719 546.480469 247.59375 545.324219 247.242188 C 544.167969 246.890625 543.03125 246.484375 541.917969 246.023438 C 540.800781 245.5625 539.710938 245.046875 538.648438 244.476562 C 537.582031 243.90625 536.546875 243.289062 535.542969 242.617188 C 534.539062 241.945312 533.570312 241.226562 532.640625 240.460938 C 531.707031 239.695312 530.8125 238.886719 529.957031 238.03125 C 529.105469 237.179688 528.292969 236.285156 527.527344 235.351562 C 526.761719 234.417969 526.042969 233.449219 525.375 232.445312 C 524.703125 231.441406 524.082031 230.40625 523.515625 229.34375 C 522.945312 228.277344 522.429688 227.1875 521.96875 226.074219 C 521.503906 224.957031 521.097656 223.820312 520.75 222.667969 C 520.398438 221.511719 520.105469 220.339844 519.871094 219.15625 C 519.632812 217.972656 519.457031 216.78125 519.339844 215.578125 C 519.21875 214.378906 519.160156 213.171875 519.160156 211.964844 C 519.160156 210.757812 519.21875 209.554688 519.339844 208.351562 C 519.457031 207.152344 519.632812 205.957031 519.871094 204.773438 C 520.105469 203.589844 520.398438 202.421875 520.75 201.265625 C 521.097656 200.109375 521.503906 198.972656 521.96875 197.859375 C 522.429688 196.742188 522.945312 195.652344 523.515625 194.589844 C 524.082031 193.523438 524.703125 192.488281 525.375 191.484375 C 526.042969 190.480469 526.761719 189.511719 527.527344 188.578125 C 528.292969 187.648438 529.105469 186.753906 529.957031 185.898438 C 530.8125 185.046875 531.707031 184.234375 532.640625 183.46875 C 533.570312 182.703125 534.539062 181.984375 535.542969 181.316406 C 536.546875 180.644531 537.582031 180.023438 538.648438 179.457031 C 539.710938 178.886719 540.800781 178.371094 541.917969 177.910156 C 543.03125 177.445312 544.167969 177.039062 545.324219 176.691406 C 546.480469 176.339844 547.648438 176.046875 548.832031 175.8125 C 550.015625 175.574219 551.210938 175.398438 552.410156 175.28125 C 553.613281 175.160156 554.816406 175.101562 556.023438 175.101562 C 557.230469 175.101562 558.4375 175.160156 559.636719 175.28125 C 560.839844 175.398438 562.03125 175.574219 563.214844 175.8125 C 564.402344 176.046875 565.570312 176.339844 566.726562 176.691406 C 567.882812 177.039062 569.015625 177.445312 570.132812 177.910156 C 571.246094 178.371094 572.335938 178.886719 573.402344 179.457031 C 574.464844 180.023438 575.5 180.644531 576.503906 181.316406 C 577.507812 181.984375 578.476562 182.703125 579.410156 183.46875 C 580.34375 184.234375 581.238281 185.046875 582.089844 185.898438 C 582.945312 186.753906 583.753906 187.648438 584.519531 188.578125 C 585.285156 189.511719 586.003906 190.480469 586.675781 191.484375 C 587.347656 192.488281 587.964844 193.523438 588.535156 194.589844 C 589.105469 195.652344 589.621094 196.742188 590.082031 197.859375 C 590.542969 198.972656 590.949219 200.109375 591.300781 201.265625 C 591.652344 202.421875 591.945312 203.589844 592.179688 204.773438 C 592.414062 205.957031 592.59375 207.152344 592.710938 208.351562 C 592.828125 209.554688 592.886719 210.757812 592.886719 211.964844 C 592.886719 213.171875 592.828125 214.378906 592.710938 215.578125 C 592.59375 216.78125 592.414062 217.972656 592.179688 219.15625 C 591.945312 220.339844 591.652344 221.511719 591.300781 222.667969 C 590.949219 223.820312 590.542969 224.957031 590.082031 226.074219 C 589.621094 227.1875 589.105469 228.277344 588.535156 229.34375 C 587.964844 230.40625 587.347656 231.441406 586.675781 232.445312 C 586.003906 233.449219 585.285156 234.417969 584.519531 235.351562 C 583.753906 236.285156 582.945312 237.179688 582.089844 238.03125 C 581.238281 238.886719 580.34375 239.695312 579.410156 240.460938 C 578.476562 241.226562 577.507812 241.945312 576.503906 242.617188 C 575.5 243.289062 574.464844 243.90625 573.402344 244.476562 C 572.335938 245.046875 571.246094 245.5625 570.132812 246.023438 C 569.015625 246.484375 567.882812 246.890625 566.726562 247.242188 C 565.570312 247.59375 564.402344 247.886719 563.214844 248.121094 C 562.03125 248.355469 560.839844 248.535156 559.636719 248.652344 C 558.4375 248.769531 557.230469 248.828125 556.023438 248.828125 Z M 556.023438 248.828125 " fill-opacity="1" fill-rule="nonzero"/></svg>