<svg xmlns="http://www.w3.org/2000/svg" xmlns:xlink="http://www.w3.org/1999/xlink" width="1024" zoomAndPan="magnify" viewBox="0 0 768 767.999994" height="1024" preserveAspectRatio="xMidYMid meet" version="1.0"><defs><clipPath id="aa923375a2"><path d="M 57.351562 131 L 710.601562 131 L 710.601562 550 L 57.351562 550 Z M 57.351562 131 " clip-rule="nonzero"/></clipPath><clipPath id="cb918ca749"><path d="M 57.351562 450 L 710.601562 450 L 710.601562 469 L 57.351562 469 Z M 57.351562 450 " clip-rule="nonzero"/></clipPath><clipPath id="ac9a6057e1"><path d="M 196 581 L 574 581 L 574 653.421875 L 196 653.421875 Z M 196 581 " clip-rule="nonzero"/></clipPath></defs><rect x="-76.8" width="921.6" fill="#ffffff" y="-76.799999" height="921.599993" fill-opacity="1"/><rect x="-76.8" width="921.6" fill="#ffffff" y="-76.799999" height="921.599993" fill-opacity="1"/><path fill="#f4f5f7" d="M 337.773438 287.707031 L 260.988281 287.707031 C 245.308594 287.707031 232.550781 274.953125 232.550781 259.273438 L 232.550781 211.6875 C 232.550781 196.007812 245.308594 183.253906 260.988281 183.253906 L 337.773438 183.253906 C 353.453125 183.253906 366.207031 196.007812 366.207031 211.6875 L 366.207031 259.273438 C 366.207031 274.953125 353.453125 287.707031 337.773438 287.707031 Z M 509.566406 287.707031 L 432.777344 287.707031 C 417.101562 287.707031 404.34375 274.953125 404.34375 259.273438 L 404.34375 211.6875 C 404.34375 196.007812 417.101562 183.253906 432.777344 183.253906 L 509.566406 183.253906 C 525.242188 183.253906 538 196.007812 538 211.6875 L 538 259.273438 C 538 274.953125 525.246094 287.707031 509.566406 287.707031 Z M 337.773438 417.347656 L 260.988281 417.347656 C 245.308594 417.347656 232.550781 404.589844 232.550781 388.914062 L 232.550781 341.328125 C 232.550781 325.648438 245.308594 312.890625 260.988281 312.890625 L 337.773438 312.890625 C 353.453125 312.890625 366.207031 325.648438 366.207031 341.328125 L 366.207031 388.914062 C 366.207031 404.589844 353.453125 417.347656 337.773438 417.347656 Z M 509.566406 417.347656 L 432.777344 417.347656 C 417.101562 417.347656 404.34375 404.589844 404.34375 388.914062 L 404.34375 341.328125 C 404.34375 325.648438 417.101562 312.890625 432.777344 312.890625 L 509.566406 312.890625 C 525.242188 312.890625 538 325.648438 538 341.328125 L 538 388.914062 C 538 404.589844 525.246094 417.347656 509.566406 417.347656 Z M 509.566406 417.347656 " fill-opacity="1" fill-rule="evenodd"/><path fill="#f4f5f7" d="M 454.105469 467.507812 L 67.914062 467.507812 L 67.914062 500.820312 C 67.914062 518.316406 82.152344 532.550781 99.648438 532.550781 L 454.105469 532.550781 Z M 454.105469 467.507812 " fill-opacity="1" fill-rule="evenodd"/><path fill="#f4f5f7" d="M 460.65625 467.65625 L 460.65625 532.402344 L 667.699219 532.402344 C 685.113281 532.402344 699.285156 518.230469 699.285156 500.816406 L 699.285156 467.65625 Z M 594.675781 500.027344 C 594.675781 494.90625 598.832031 490.75 603.957031 490.75 L 643.320312 490.75 C 648.445312 490.75 652.597656 494.90625 652.597656 500.027344 C 652.597656 505.15625 648.445312 509.308594 643.320312 509.308594 L 603.957031 509.308594 C 598.832031 509.308594 594.675781 505.152344 594.675781 500.027344 Z M 516.621094 490.75 L 555.984375 490.75 C 561.109375 490.75 565.265625 494.90625 565.265625 500.027344 C 565.265625 505.15625 561.109375 509.308594 555.984375 509.308594 L 516.621094 509.308594 C 511.496094 509.308594 507.34375 505.152344 507.34375 500.027344 C 507.34375 494.90625 511.496094 490.75 516.621094 490.75 Z M 516.621094 490.75 " fill-opacity="1" fill-rule="evenodd"/><g clip-path="url(#aa923375a2)"><path fill="#f4f5f7" d="M 664.742188 549.246094 L 105.804688 549.246094 C 79.085938 549.246094 57.351562 527.507812 57.351562 500.789062 L 57.351562 180.3125 C 57.351562 153.59375 79.089844 131.855469 105.808594 131.855469 L 664.742188 131.855469 C 691.460938 131.855469 713.199219 153.59375 713.199219 180.3125 L 713.199219 500.789062 C 713.195312 527.507812 691.460938 549.246094 664.742188 549.246094 Z M 105.804688 149.789062 C 88.976562 149.789062 75.285156 163.480469 75.285156 180.3125 L 75.285156 500.789062 C 75.285156 517.617188 88.976562 531.308594 105.808594 531.308594 L 664.742188 531.308594 C 681.574219 531.308594 695.265625 517.617188 695.265625 500.785156 L 695.265625 180.3125 C 695.265625 163.480469 681.574219 149.789062 664.742188 149.789062 Z M 105.804688 149.789062 " fill-opacity="1" fill-rule="evenodd"/></g><g clip-path="url(#cb918ca749)"><path fill="#f4f5f7" d="M 704.230469 468.746094 L 66.316406 468.746094 C 61.363281 468.746094 57.351562 464.734375 57.351562 459.78125 C 57.351562 454.828125 61.363281 450.816406 66.316406 450.816406 L 704.230469 450.816406 C 709.183594 450.816406 713.195312 454.828125 713.195312 459.78125 C 713.195312 464.734375 709.183594 468.746094 704.230469 468.746094 Z M 704.230469 468.746094 " fill-opacity="1" fill-rule="evenodd"/></g><path fill="#f4f5f7" d="M 482.601562 622.90625 C 482.59375 622.90625 482.582031 622.90625 482.574219 622.90625 L 287.972656 622.90625 C 285.289062 622.90625 282.746094 621.707031 281.039062 619.628906 C 279.335938 617.554688 278.65625 614.824219 279.175781 612.191406 C 283.316406 591.378906 282.425781 567.863281 276.523438 542.292969 C 275.914062 539.632812 276.542969 536.832031 278.246094 534.695312 C 279.945312 532.558594 282.53125 531.3125 285.261719 531.3125 L 485.285156 531.3125 C 488.015625 531.3125 490.597656 532.558594 492.300781 534.695312 C 494 536.832031 494.636719 539.632812 494.019531 542.292969 C 488.1875 567.59375 487.25 590.886719 491.242188 611.53125 C 491.453125 612.296875 491.570312 613.105469 491.570312 613.941406 C 491.570312 618.894531 487.554688 622.90625 482.601562 622.90625 Z M 482.601562 622.90625 " fill-opacity="1" fill-rule="evenodd"/><g clip-path="url(#ac9a6057e1)"><path fill="#f4f5f7" d="M 564.894531 677.128906 L 205.65625 677.128906 C 203.023438 677.128906 200.523438 675.976562 198.820312 673.96875 C 197.117188 671.960938 196.382812 669.308594 196.808594 666.710938 L 209.617188 588.652344 C 210.328125 584.320312 214.074219 581.140625 218.464844 581.140625 L 290.644531 581.140625 C 294.660156 581.140625 423.066406 583.785156 471.34375 587.425781 C 472.484375 583.785156 475.886719 581.140625 479.90625 581.140625 L 552.082031 581.140625 C 556.472656 581.140625 560.21875 584.320312 560.929688 588.652344 L 573.738281 666.710938 C 574.164062 669.308594 573.429688 671.960938 571.726562 673.96875 C 570.023438 675.976562 567.523438 677.128906 564.890625 677.128906 Z M 564.894531 677.128906 " fill-opacity="1" fill-rule="evenodd"/></g><path fill="#f4f5f7" d="M 455.710938 549.246094 C 450.757812 549.246094 446.742188 545.230469 446.742188 540.277344 L 446.742188 459.777344 C 446.742188 454.828125 450.757812 450.8125 455.710938 450.8125 C 460.660156 450.8125 464.675781 454.828125 464.675781 459.777344 L 464.675781 540.277344 C 464.675781 545.230469 460.660156 549.246094 455.710938 549.246094 Z M 455.710938 549.246094 " fill-opacity="1" fill-rule="evenodd"/></svg>