<svg xmlns="http://www.w3.org/2000/svg" xmlns:xlink="http://www.w3.org/1999/xlink" width="1024" zoomAndPan="magnify" viewBox="0 0 768 767.999994" height="1024" preserveAspectRatio="xMidYMid meet" version="1.0"><defs><clipPath id="4b6a29c499"><path d="M 120.28125 66.746094 L 647.53125 66.746094 L 647.53125 701.246094 L 120.28125 701.246094 Z M 120.28125 66.746094 " clip-rule="nonzero"/></clipPath></defs><rect x="-76.8" width="921.6" fill="#ffffff" y="-76.799999" height="921.599993" fill-opacity="1"/><rect x="-76.8" width="921.6" fill="#ffffff" y="-76.799999" height="921.599993" fill-opacity="1"/><g clip-path="url(#4b6a29c499)"><path fill="#f4f5f7" d="M 383.929688 240.207031 C 382.546875 240.207031 381.167969 240.242188 379.789062 240.308594 C 378.410156 240.375 377.035156 240.476562 375.660156 240.613281 C 374.289062 240.75 372.917969 240.917969 371.550781 241.121094 C 370.1875 241.324219 368.828125 241.558594 367.472656 241.828125 C 366.121094 242.097656 364.773438 242.398438 363.433594 242.734375 C 362.09375 243.070312 360.765625 243.4375 359.445312 243.839844 C 358.121094 244.238281 356.8125 244.671875 355.511719 245.136719 C 354.210938 245.601562 352.925781 246.097656 351.648438 246.628906 C 350.375 247.15625 349.113281 247.714844 347.863281 248.304688 C 346.617188 248.894531 345.382812 249.515625 344.167969 250.167969 C 342.949219 250.816406 341.75 251.496094 340.566406 252.207031 C 339.382812 252.917969 338.214844 253.65625 337.066406 254.421875 C 335.917969 255.1875 334.792969 255.984375 333.683594 256.804688 C 332.574219 257.628906 331.484375 258.476562 330.417969 259.351562 C 329.351562 260.230469 328.304688 261.128906 327.285156 262.058594 C 326.261719 262.984375 325.261719 263.9375 324.285156 264.914062 C 323.308594 265.886719 322.359375 266.886719 321.429688 267.910156 C 320.503906 268.933594 319.601562 269.976562 318.726562 271.046875 C 317.851562 272.113281 317 273.199219 316.179688 274.308594 C 315.355469 275.417969 314.5625 276.546875 313.796875 277.695312 C 313.027344 278.84375 312.289062 280.007812 311.582031 281.191406 C 310.871094 282.375 310.191406 283.578125 309.539062 284.792969 C 308.890625 286.011719 308.269531 287.242188 307.679688 288.492188 C 307.089844 289.738281 306.527344 291 306 292.277344 C 305.472656 293.550781 304.976562 294.839844 304.511719 296.140625 C 304.046875 297.4375 303.613281 298.75 303.210938 300.070312 C 302.8125 301.390625 302.445312 302.722656 302.109375 304.0625 C 301.773438 305.398438 301.46875 306.746094 301.199219 308.101562 C 300.929688 309.453125 300.695312 310.8125 300.492188 312.179688 C 300.289062 313.542969 300.121094 314.914062 299.988281 316.289062 C 299.851562 317.660156 299.75 319.039062 299.683594 320.417969 C 299.613281 321.796875 299.582031 323.175781 299.582031 324.554688 C 299.582031 325.9375 299.613281 327.316406 299.683594 328.695312 C 299.75 330.074219 299.851562 331.449219 299.988281 332.824219 C 300.121094 334.195312 300.289062 335.566406 300.492188 336.933594 C 300.695312 338.296875 300.929688 339.65625 301.199219 341.011719 C 301.46875 342.363281 301.773438 343.710938 302.109375 345.050781 C 302.445312 346.390625 302.8125 347.71875 303.210938 349.039062 C 303.613281 350.363281 304.046875 351.671875 304.511719 352.972656 C 304.976562 354.273438 305.472656 355.558594 306 356.835938 C 306.527344 358.109375 307.089844 359.371094 307.679688 360.621094 C 308.269531 361.867188 308.890625 363.101562 309.539062 364.316406 C 310.191406 365.535156 310.871094 366.734375 311.582031 367.917969 C 312.289062 369.101562 313.027344 370.269531 313.796875 371.417969 C 314.5625 372.566406 315.355469 373.691406 316.179688 374.800781 C 317 375.910156 317.851562 377 318.726562 378.066406 C 319.601562 379.132812 320.503906 380.179688 321.429688 381.199219 C 322.359375 382.222656 323.308594 383.222656 324.285156 384.199219 C 325.261719 385.175781 326.261719 386.125 327.285156 387.054688 C 328.304688 387.980469 329.351562 388.882812 330.417969 389.757812 C 331.484375 390.632812 332.574219 391.484375 333.683594 392.304688 C 334.792969 393.128906 335.917969 393.921875 337.066406 394.6875 C 338.214844 395.457031 339.378906 396.195312 340.566406 396.902344 C 341.75 397.613281 342.949219 398.292969 344.167969 398.945312 C 345.382812 399.59375 346.617188 400.214844 347.863281 400.804688 C 349.113281 401.394531 350.375 401.957031 351.648438 402.484375 C 352.925781 403.011719 354.210938 403.507812 355.511719 403.972656 C 356.8125 404.4375 358.121094 404.871094 359.445312 405.273438 C 360.765625 405.671875 362.09375 406.039062 363.433594 406.375 C 364.773438 406.710938 366.121094 407.015625 367.472656 407.285156 C 368.828125 407.554688 370.1875 407.789062 371.550781 407.992188 C 372.917969 408.195312 374.289062 408.363281 375.660156 408.5 C 377.035156 408.632812 378.410156 408.734375 379.789062 408.800781 C 381.167969 408.871094 382.546875 408.902344 383.929688 408.902344 C 385.308594 408.902344 386.6875 408.871094 388.066406 408.800781 C 389.445312 408.734375 390.824219 408.632812 392.195312 408.5 C 393.570312 408.363281 394.941406 408.195312 396.304688 407.992188 C 397.671875 407.789062 399.03125 407.554688 400.382812 407.285156 C 401.738281 407.015625 403.085938 406.710938 404.421875 406.375 C 405.761719 406.039062 407.09375 405.671875 408.414062 405.273438 C 409.734375 404.871094 411.046875 404.4375 412.34375 403.972656 C 413.644531 403.507812 414.933594 403.011719 416.207031 402.484375 C 417.484375 401.957031 418.746094 401.394531 419.992188 400.804688 C 421.238281 400.214844 422.472656 399.59375 423.691406 398.945312 C 424.90625 398.292969 426.109375 397.613281 427.292969 396.902344 C 428.476562 396.195312 429.640625 395.457031 430.789062 394.6875 C 431.9375 393.921875 433.066406 393.128906 434.175781 392.304688 C 435.285156 391.484375 436.371094 390.632812 437.4375 389.757812 C 438.507812 388.882812 439.550781 387.980469 440.574219 387.054688 C 441.597656 386.125 442.597656 385.175781 443.570312 384.199219 C 444.546875 383.222656 445.5 382.222656 446.425781 381.199219 C 447.355469 380.179688 448.253906 379.132812 449.132812 378.066406 C 450.007812 377 450.855469 375.910156 451.679688 374.800781 C 452.5 373.691406 453.296875 372.566406 454.0625 371.417969 C 454.828125 370.269531 455.566406 369.101562 456.277344 367.917969 C 456.988281 366.734375 457.667969 365.535156 458.316406 364.316406 C 458.96875 363.101562 459.589844 361.867188 460.179688 360.621094 C 460.769531 359.371094 461.328125 358.109375 461.855469 356.835938 C 462.386719 355.558594 462.882812 354.273438 463.347656 352.972656 C 463.8125 351.671875 464.246094 350.363281 464.644531 349.039062 C 465.046875 347.71875 465.414062 346.390625 465.75 345.050781 C 466.085938 343.710938 466.386719 342.363281 466.65625 341.011719 C 466.925781 339.65625 467.160156 338.296875 467.363281 336.933594 C 467.566406 335.566406 467.734375 334.195312 467.871094 332.824219 C 468.007812 331.449219 468.109375 330.074219 468.175781 328.695312 C 468.242188 327.316406 468.277344 325.9375 468.277344 324.554688 C 468.277344 323.175781 468.242188 321.796875 468.175781 320.417969 C 468.109375 319.039062 468.007812 317.660156 467.871094 316.289062 C 467.734375 314.914062 467.566406 313.542969 467.363281 312.179688 C 467.160156 310.8125 466.925781 309.453125 466.65625 308.101562 C 466.386719 306.746094 466.085938 305.398438 465.75 304.058594 C 465.414062 302.722656 465.046875 301.390625 464.644531 300.070312 C 464.242188 298.75 463.8125 297.4375 463.347656 296.140625 C 462.878906 294.839844 462.382812 293.550781 461.855469 292.277344 C 461.328125 291 460.769531 289.738281 460.179688 288.492188 C 459.585938 287.242188 458.96875 286.011719 458.316406 284.792969 C 457.664062 283.578125 456.984375 282.375 456.277344 281.191406 C 455.566406 280.007812 454.828125 278.839844 454.0625 277.695312 C 453.292969 276.546875 452.5 275.417969 451.675781 274.308594 C 450.855469 273.199219 450.003906 272.113281 449.128906 271.046875 C 448.253906 269.976562 447.351562 268.933594 446.425781 267.910156 C 445.5 266.886719 444.546875 265.886719 443.570312 264.914062 C 442.59375 263.9375 441.59375 262.984375 440.574219 262.058594 C 439.550781 261.128906 438.503906 260.230469 437.4375 259.351562 C 436.371094 258.476562 435.28125 257.628906 434.175781 256.804688 C 433.066406 255.984375 431.9375 255.1875 430.789062 254.421875 C 429.640625 253.65625 428.476562 252.917969 427.292969 252.207031 C 426.109375 251.496094 424.90625 250.816406 423.691406 250.167969 C 422.472656 249.515625 421.238281 248.894531 419.992188 248.304688 C 418.742188 247.714844 417.480469 247.15625 416.207031 246.628906 C 414.929688 246.097656 413.644531 245.601562 412.34375 245.136719 C 411.042969 244.671875 409.734375 244.238281 408.414062 243.839844 C 407.09375 243.4375 405.761719 243.070312 404.421875 242.734375 C 403.085938 242.398438 401.738281 242.097656 400.382812 241.828125 C 399.03125 241.558594 397.671875 241.324219 396.304688 241.121094 C 394.941406 240.917969 393.570312 240.75 392.195312 240.613281 C 390.824219 240.476562 389.445312 240.375 388.066406 240.308594 C 386.6875 240.242188 385.308594 240.207031 383.929688 240.207031 Z M 436.585938 303.070312 L 372.472656 361.253906 C 371.984375 361.75 371.453125 362.191406 370.875 362.585938 C 370.296875 362.976562 369.6875 363.304688 369.046875 363.578125 C 368.402344 363.847656 367.738281 364.050781 367.058594 364.191406 C 366.375 364.332031 365.683594 364.402344 364.988281 364.40625 C 364.289062 364.40625 363.597656 364.34375 362.914062 364.207031 C 362.230469 364.074219 361.566406 363.875 360.921875 363.609375 C 360.277344 363.34375 359.664062 363.019531 359.085938 362.632812 C 358.503906 362.246094 357.96875 361.804688 357.472656 361.3125 L 330.902344 334.738281 C 330.425781 334.246094 330.003906 333.710938 329.632812 333.132812 C 329.261719 332.558594 328.949219 331.953125 328.699219 331.316406 C 328.445312 330.679688 328.257812 330.023438 328.132812 329.351562 C 328.003906 328.675781 327.945312 327.996094 327.953125 327.3125 C 327.960938 326.625 328.03125 325.949219 328.171875 325.277344 C 328.308594 324.605469 328.511719 323.957031 328.777344 323.324219 C 329.042969 322.691406 329.367188 322.09375 329.75 321.523438 C 330.132812 320.957031 330.5625 320.429688 331.046875 319.945312 C 331.53125 319.460938 332.058594 319.027344 332.628906 318.644531 C 333.195312 318.261719 333.796875 317.941406 334.429688 317.675781 C 335.0625 317.410156 335.710938 317.207031 336.382812 317.070312 C 337.054688 316.929688 337.730469 316.859375 338.417969 316.851562 C 339.101562 316.84375 339.78125 316.902344 340.453125 317.027344 C 341.128906 317.15625 341.785156 317.34375 342.421875 317.597656 C 343.058594 317.847656 343.664062 318.160156 344.238281 318.53125 C 344.816406 318.902344 345.351562 319.324219 345.84375 319.800781 L 365.3125 339.269531 L 422.382812 287.472656 C 422.894531 287 423.449219 286.582031 424.042969 286.214844 C 424.636719 285.851562 425.261719 285.550781 425.914062 285.3125 C 426.566406 285.070312 427.238281 284.898438 427.925781 284.789062 C 428.613281 284.683594 429.304688 284.644531 430.003906 284.671875 C 430.699219 284.703125 431.382812 284.800781 432.058594 284.964844 C 432.738281 285.132812 433.390625 285.363281 434.019531 285.65625 C 434.652344 285.953125 435.246094 286.308594 435.808594 286.71875 C 436.371094 287.132812 436.882812 287.597656 437.351562 288.113281 C 437.820312 288.628906 438.234375 289.183594 438.59375 289.78125 C 438.953125 290.378906 439.25 291.003906 439.484375 291.660156 C 439.71875 292.316406 439.886719 292.988281 439.988281 293.675781 C 440.089844 294.367188 440.121094 295.058594 440.085938 295.753906 C 440.050781 296.449219 439.945312 297.132812 439.773438 297.808594 C 439.605469 298.484375 439.367188 299.136719 439.066406 299.765625 C 438.765625 300.390625 438.40625 300.984375 437.988281 301.542969 C 437.570312 302.097656 437.101562 302.609375 436.585938 303.074219 Z M 383.929688 123.535156 L 172.238281 214.261719 L 172.238281 395.273438 C 172.238281 523.1875 260.769531 621.683594 383.929688 647.9375 C 507.085938 621.683594 595.617188 523.1875 595.617188 395.273438 L 595.617188 214.261719 Z M 323.695312 547.875 L 298.570312 504.628906 L 249.300781 513.238281 L 283.230469 440.363281 L 285.464844 441.320312 C 287.1875 441.972656 288.515625 443.089844 289.457031 444.667969 L 301.875 463.652344 C 303.203125 465.699219 304.667969 467.644531 306.277344 469.480469 C 307.882812 471.320312 309.613281 473.03125 311.46875 474.621094 C 313.320312 476.210938 315.277344 477.660156 317.339844 478.96875 C 319.402344 480.277344 321.546875 481.429688 323.773438 482.429688 C 326 483.429688 328.289062 484.265625 330.636719 484.9375 C 332.984375 485.605469 335.367188 486.105469 337.785156 486.433594 C 340.207031 486.761719 342.636719 486.917969 345.078125 486.894531 C 347.519531 486.875 349.945312 486.679688 352.359375 486.308594 Z M 469.5625 489.996094 L 443.1875 532.492188 L 423.554688 486.890625 C 425.660156 486.878906 427.753906 486.734375 429.839844 486.460938 C 431.925781 486.1875 433.984375 485.789062 436.019531 485.257812 C 438.058594 484.730469 440.054688 484.078125 442.007812 483.304688 C 443.964844 482.527344 445.863281 481.636719 447.707031 480.625 C 449.554688 479.613281 451.328125 478.492188 453.035156 477.261719 C 454.742188 476.03125 456.363281 474.703125 457.90625 473.269531 C 459.449219 471.839844 460.894531 470.316406 462.246094 468.707031 C 463.601562 467.097656 464.847656 465.410156 465.992188 463.644531 L 478.410156 444.660156 C 479.351562 443.082031 480.683594 441.96875 482.398438 441.3125 L 491.589844 437.378906 L 518.566406 500.023438 Z M 523.546875 321.75 L 513.316406 341.992188 C 511.941406 344.628906 510.992188 347.414062 510.476562 350.34375 C 509.960938 353.273438 509.898438 356.214844 510.289062 359.164062 L 512.976562 381.683594 C 513.183594 383.289062 513.261719 384.90625 513.203125 386.523438 C 513.148438 388.144531 512.960938 389.75 512.640625 391.335938 C 512.324219 392.925781 511.878906 394.480469 511.308594 395.996094 C 510.734375 397.511719 510.042969 398.972656 509.234375 400.375 C 508.421875 401.777344 507.503906 403.109375 506.476562 404.359375 C 505.449219 405.613281 504.328125 406.777344 503.109375 407.847656 C 501.894531 408.917969 500.597656 409.882812 499.222656 410.738281 C 497.847656 411.597656 496.414062 412.339844 494.917969 412.964844 L 474.070312 421.894531 C 471.320312 423.03125 468.804688 424.554688 466.523438 426.464844 C 464.246094 428.378906 462.308594 430.589844 460.710938 433.101562 L 448.296875 452.082031 C 447.421875 453.449219 446.441406 454.734375 445.355469 455.9375 C 444.273438 457.144531 443.097656 458.25 441.832031 459.265625 C 440.566406 460.277344 439.226562 461.179688 437.8125 461.976562 C 436.402344 462.769531 434.933594 463.441406 433.410156 463.996094 C 431.886719 464.550781 430.328125 464.980469 428.734375 465.277344 C 427.140625 465.578125 425.535156 465.746094 423.914062 465.785156 C 422.292969 465.820312 420.683594 465.726562 419.078125 465.5 C 417.472656 465.277344 415.894531 464.921875 414.347656 464.4375 L 392.648438 457.875 C 389.808594 456.980469 386.902344 456.53125 383.929688 456.53125 C 380.953125 456.53125 378.046875 456.980469 375.210938 457.875 L 353.5 464.4375 C 351.953125 464.917969 350.375 465.273438 348.769531 465.5 C 347.164062 465.726562 345.550781 465.820312 343.933594 465.78125 C 342.3125 465.746094 340.703125 465.578125 339.113281 465.277344 C 337.519531 464.976562 335.960938 464.550781 334.4375 463.996094 C 332.914062 463.441406 331.445312 462.765625 330.03125 461.972656 C 328.621094 461.179688 327.28125 460.277344 326.015625 459.261719 C 324.75 458.25 323.574219 457.140625 322.492188 455.9375 C 321.40625 454.730469 320.425781 453.445312 319.550781 452.082031 L 307.136719 433.101562 C 305.539062 430.589844 303.601562 428.378906 301.320312 426.464844 C 299.042969 424.550781 296.527344 423.027344 293.777344 421.890625 L 272.929688 412.964844 C 271.433594 412.339844 270 411.597656 268.625 410.738281 C 267.25 409.878906 265.957031 408.914062 264.738281 407.84375 C 263.523438 406.773438 262.402344 405.613281 261.375 404.359375 C 260.347656 403.105469 259.429688 401.777344 258.621094 400.371094 C 257.808594 398.96875 257.121094 397.507812 256.546875 395.992188 C 255.976562 394.476562 255.53125 392.925781 255.214844 391.335938 C 254.894531 389.746094 254.707031 388.140625 254.652344 386.523438 C 254.597656 384.902344 254.671875 383.289062 254.878906 381.683594 L 257.570312 359.164062 C 257.960938 356.214844 257.898438 353.273438 257.382812 350.34375 C 256.863281 347.414062 255.917969 344.628906 254.542969 341.992188 L 244.3125 321.75 C 243.566406 320.3125 242.945312 318.820312 242.445312 317.277344 C 241.941406 315.738281 241.570312 314.164062 241.324219 312.5625 C 241.082031 310.960938 240.96875 309.351562 240.988281 307.730469 C 241.003906 306.109375 241.15625 304.5 241.4375 302.90625 C 241.71875 301.308594 242.125 299.746094 242.664062 298.214844 C 243.199219 296.6875 243.855469 295.210938 244.636719 293.789062 C 245.414062 292.367188 246.300781 291.019531 247.296875 289.742188 C 248.296875 288.464844 249.390625 287.277344 250.582031 286.179688 L 267.121094 270.65625 C 269.316406 268.648438 271.15625 266.355469 272.644531 263.777344 C 274.132812 261.203125 275.195312 258.460938 275.839844 255.554688 L 281.011719 233.472656 C 281.367188 231.890625 281.847656 230.351562 282.453125 228.847656 C 283.0625 227.34375 283.785156 225.902344 284.628906 224.515625 C 285.472656 223.132812 286.421875 221.824219 287.476562 220.597656 C 288.53125 219.367188 289.679688 218.230469 290.921875 217.1875 C 292.164062 216.148438 293.480469 215.214844 294.875 214.386719 C 296.269531 213.558594 297.722656 212.851562 299.230469 212.261719 C 300.742188 211.671875 302.289062 211.210938 303.875 210.875 C 305.460938 210.539062 307.0625 210.332031 308.679688 210.257812 L 331.324219 208.996094 C 334.296875 208.871094 337.183594 208.296875 339.980469 207.28125 C 342.773438 206.261719 345.351562 204.847656 347.710938 203.035156 L 365.867188 189.441406 C 367.15625 188.460938 368.515625 187.589844 369.945312 186.828125 C 371.378906 186.066406 372.859375 185.425781 374.394531 184.90625 C 375.933594 184.386719 377.5 183.996094 379.097656 183.734375 C 380.699219 183.472656 382.308594 183.339844 383.929688 183.339844 C 385.546875 183.339844 387.160156 183.472656 388.757812 183.734375 C 390.355469 183.996094 391.925781 184.386719 393.460938 184.90625 C 394.996094 185.425781 396.476562 186.066406 397.910156 186.828125 C 399.339844 187.589844 400.699219 188.460938 401.988281 189.441406 L 420.144531 203.035156 C 422.503906 204.847656 425.082031 206.265625 427.878906 207.28125 C 430.675781 208.300781 433.558594 208.871094 436.53125 209 L 459.175781 210.257812 C 460.796875 210.332031 462.398438 210.539062 463.984375 210.875 C 465.566406 211.214844 467.117188 211.675781 468.625 212.265625 C 470.136719 212.855469 471.585938 213.5625 472.980469 214.390625 C 474.375 215.214844 475.691406 216.148438 476.933594 217.191406 C 478.175781 218.234375 479.324219 219.367188 480.382812 220.597656 C 481.4375 221.828125 482.386719 223.132812 483.230469 224.519531 C 484.070312 225.902344 484.796875 227.347656 485.402344 228.851562 C 486.011719 230.351562 486.492188 231.894531 486.847656 233.476562 L 492.019531 255.558594 C 492.660156 258.464844 493.726562 261.203125 495.214844 263.78125 C 496.699219 266.359375 498.542969 268.652344 500.738281 270.660156 L 517.277344 286.179688 C 518.46875 287.28125 519.5625 288.46875 520.558594 289.746094 C 521.558594 291.019531 522.445312 292.371094 523.222656 293.792969 C 524 295.214844 524.65625 296.691406 525.195312 298.21875 C 525.730469 299.75 526.140625 301.3125 526.421875 302.90625 C 526.703125 304.503906 526.851562 306.109375 526.871094 307.730469 C 526.890625 309.351562 526.777344 310.960938 526.53125 312.566406 C 526.285156 314.167969 525.914062 315.738281 525.414062 317.28125 C 524.914062 318.820312 524.289062 320.3125 523.546875 321.75 Z M 383.929688 66.984375 L 120.238281 179.996094 L 120.238281 395.273438 C 120.238281 548.789062 227.308594 668.773438 375.574219 699.285156 L 383.929688 701.003906 L 392.28125 699.289062 C 540.546875 668.777344 647.621094 548.789062 647.621094 395.273438 L 647.621094 179.996094 Z M 616.75 395.273438 C 616.75 533.976562 520.117188 641.304688 386.308594 668.960938 C 384.816406 669.304688 383.320312 669.324219 381.824219 669.019531 C 247.886719 641.453125 151.105469 534.085938 151.105469 395.273438 L 151.105469 207.3125 L 151.128906 207.3125 C 151.128906 206.277344 151.277344 205.265625 151.574219 204.277344 C 151.875 203.285156 152.308594 202.359375 152.878906 201.496094 C 153.449219 200.636719 154.132812 199.871094 154.925781 199.210938 C 155.71875 198.550781 156.59375 198.015625 157.546875 197.613281 L 379.800781 102.367188 C 381.121094 101.804688 382.496094 101.519531 383.929688 101.519531 C 385.363281 101.519531 386.738281 101.804688 388.054688 102.367188 L 609.640625 197.328125 C 610.675781 197.6875 611.636719 198.195312 612.515625 198.855469 C 613.394531 199.515625 614.15625 200.289062 614.792969 201.1875 C 615.429688 202.082031 615.914062 203.050781 616.25 204.097656 C 616.585938 205.144531 616.75 206.21875 616.75 207.316406 Z M 616.75 395.273438 " fill-opacity="1" fill-rule="evenodd"/></g></svg>