<svg xmlns="http://www.w3.org/2000/svg" xmlns:xlink="http://www.w3.org/1999/xlink" width="1024" zoomAndPan="magnify" viewBox="0 0 768 767.999994" height="1024" preserveAspectRatio="xMidYMid meet" version="1.0"><defs><clipPath id="8f74eea6d5"><path d="M 112.683594 264 L 655.367188 264 L 655.367188 694.183594 L 112.683594 694.183594 Z M 112.683594 264 " clip-rule="nonzero"/></clipPath></defs><rect x="-76.8" width="921.6" fill="#ffffff" y="-76.799999" height="921.599993" fill-opacity="1"/><rect x="-76.8" width="921.6" fill="#ffffff" y="-76.799999" height="921.599993" fill-opacity="1"/><path fill="#f4f5f7" d="M 457.855469 418.34375 C 433.953125 404.554688 403.425781 412.722656 389.636719 436.621094 C 373.535156 464.488281 392.476562 496.476562 346.738281 539.707031 C 404.355469 546.976562 460.050781 514.445312 476.132812 486.558594 C 489.941406 462.679688 481.753906 432.128906 457.855469 418.34375 " fill-opacity="1" fill-rule="nonzero"/><path fill="#f4f5f7" d="M 475.394531 387.949219 C 493.964844 398.664062 506.878906 415.40625 513.273438 434.269531 C 548.6875 366.480469 592.671875 262.054688 620.988281 167.273438 C 625.867188 150.996094 605.390625 139.171875 593.722656 151.519531 C 525.796875 223.453125 457.347656 313.742188 416.335938 378.300781 C 435.878906 374.414062 456.84375 377.234375 475.394531 387.949219 " fill-opacity="1" fill-rule="nonzero"/><g clip-path="url(#8f74eea6d5)"><path fill="#f4f5f7" d="M 151.34375 298.84375 L 280.777344 298.84375 L 280.777344 335.191406 L 151.34375 335.191406 Z M 627.734375 264.5625 L 625.382812 264.5625 C 612.429688 299.835938 597.984375 335.617188 583.066406 369.472656 L 616.710938 369.472656 L 616.710938 655.527344 L 151.34375 655.527344 L 151.34375 369.472656 L 380.378906 369.472656 L 386.71875 359.496094 C 405.640625 329.707031 428.488281 297.171875 453.148438 264.5625 L 140.277344 264.5625 C 124.996094 264.5625 112.683594 276.929688 112.683594 292.15625 L 112.683594 666.609375 C 112.683594 681.875 124.996094 694.183594 140.277344 694.183594 L 627.734375 694.183594 C 643.058594 694.183594 655.386719 681.875 655.386719 666.609375 L 655.386719 292.15625 C 655.386719 276.929688 643.058594 264.5625 627.734375 264.5625 " fill-opacity="1" fill-rule="nonzero"/></g><path fill="#f4f5f7" d="M 410.636719 191.074219 L 421.140625 193.953125 C 433.175781 197.277344 442.589844 206.671875 445.894531 218.726562 L 448.792969 229.207031 C 450.949219 237.105469 462.132812 237.105469 464.289062 229.207031 L 467.1875 218.726562 C 470.492188 206.671875 479.90625 197.277344 491.941406 193.953125 L 502.425781 191.074219 C 510.320312 188.917969 510.320312 177.734375 502.425781 175.558594 L 491.941406 172.679688 C 479.90625 169.371094 470.492188 159.960938 467.1875 147.925781 L 464.289062 137.421875 C 462.132812 129.546875 450.949219 129.546875 448.792969 137.421875 L 445.894531 147.925781 C 442.589844 159.960938 433.175781 169.371094 421.140625 172.679688 L 410.636719 175.558594 C 402.761719 177.734375 402.761719 188.917969 410.636719 191.074219 " fill-opacity="1" fill-rule="nonzero"/><path fill="#f4f5f7" d="M 267.613281 147.574219 L 280.117188 150.996094 C 294.46875 154.945312 305.667969 166.164062 309.617188 180.515625 L 313.058594 193.019531 C 315.644531 202.410156 328.964844 202.410156 331.53125 193.019531 L 334.972656 180.515625 C 338.921875 166.164062 350.140625 154.945312 364.492188 150.996094 L 376.996094 147.574219 C 386.371094 144.988281 386.371094 131.667969 376.996094 129.082031 L 364.492188 125.636719 C 350.140625 121.691406 338.921875 110.488281 334.972656 96.140625 L 331.53125 83.636719 C 328.964844 74.242188 315.644531 74.242188 313.058594 83.636719 L 309.617188 96.140625 C 305.667969 110.488281 294.46875 121.691406 280.117188 125.636719 L 267.613281 129.082031 C 258.21875 131.667969 258.21875 144.988281 267.613281 147.574219 " fill-opacity="1" fill-rule="nonzero"/></svg>