<svg xmlns="http://www.w3.org/2000/svg" xmlns:xlink="http://www.w3.org/1999/xlink" width="1024" zoomAndPan="magnify" viewBox="0 0 768 767.999994" height="1024" preserveAspectRatio="xMidYMid meet" version="1.0"><defs><clipPath id="bae10d71e6"><path d="M 141 473 L 628 473 L 628 690.945312 L 141 690.945312 Z M 141 473 " clip-rule="nonzero"/></clipPath></defs><rect x="-76.8" width="921.6" fill="#ffffff" y="-76.799999" height="921.599993" fill-opacity="1"/><rect x="-76.8" width="921.6" fill="#ffffff" y="-76.799999" height="921.599993" fill-opacity="1"/><path fill="#f4f5f7" d="M 561.21875 264.644531 C 559.863281 259.738281 556.53125 255.695312 551.839844 253.226562 C 552.859375 242.144531 551.34375 228.566406 548.753906 217.394531 C 546.5625 208.199219 543.105469 197.921875 537.828125 187.214844 C 532.242188 176.628906 525.359375 165.367188 515.703125 154.996094 C 506.535156 144.257812 494.71875 134.476562 481.386719 125.863281 C 365.074219 52.078125 204.476562 139.351562 216.945312 253.257812 C 212.285156 255.726562 208.980469 259.738281 207.625 264.613281 C 180.097656 265.105469 157.96875 285.566406 157.96875 310.839844 C 157.96875 336.117188 180.097656 356.605469 207.625 357.101562 C 209.816406 365.0625 217.34375 371.109375 226.757812 371.109375 C 237.898438 371.109375 246.878906 362.871094 246.878906 352.6875 L 246.878906 269.054688 C 246.878906 263.253906 243.792969 258.285156 239.257812 254.921875 C 244.285156 226.128906 259.253906 195.703125 280.238281 176.816406 C 311.035156 146.789062 364.488281 129.445312 423.246094 142.53125 C 445.863281 149.257812 468.117188 160.582031 486.664062 178.726562 C 507.308594 197.277344 524.066406 225.082031 529.527344 254.921875 C 517.644531 263.75 521.90625 271.371094 521.90625 352.6875 C 521.90625 359.042969 525.667969 364.382812 531.007812 367.6875 L 531.007812 374.785156 C 531.007812 379.257812 529.742188 383.671875 527.304688 387.46875 C 501.011719 428.449219 499.285156 432.617188 459.566406 445.328125 C 447.070312 449.3125 432.964844 451.039062 418.707031 454.527344 C 405.5625 441.535156 382.386719 450.082031 382.386719 467.457031 C 382.386719 489.398438 416.640625 494.429688 423.277344 472.488281 C 432.902344 470.140625 442.808594 468.753906 452.128906 465.914062 C 503.359375 450.328125 520.113281 441.070312 547.242188 389.320312 C 549.800781 384.410156 551.160156 378.980469 551.160156 373.457031 L 551.160156 368.890625 C 556.222656 366.480469 559.800781 362.253906 561.21875 357.070312 C 588.71875 356.574219 610.8125 336.117188 610.8125 310.839844 C 610.8125 285.597656 588.71875 265.167969 561.21875 264.644531 " fill-opacity="1" fill-rule="nonzero"/><g clip-path="url(#bae10d71e6)"><path fill="#f4f5f7" d="M 384.453125 563.617188 C 400.902344 540.535156 415.222656 520.691406 429.261719 500.664062 C 445.710938 477.175781 462.28125 469.585938 488.265625 478.351562 C 521.289062 489.492188 553.96875 501.957031 585.941406 515.875 C 613.375 527.820312 628.773438 549.175781 627.078125 580.835938 C 626.210938 596.421875 627.078125 612.066406 626.859375 627.683594 C 626.304688 670.703125 606.707031 690.730469 564.089844 690.945312 C 509.066406 691.285156 454.042969 691.070312 399.019531 691.070312 C 335.078125 691.070312 271.105469 691.222656 207.191406 690.976562 C 161.457031 690.761719 142.167969 671.226562 141.921875 625.738281 C 141.832031 610.863281 142.664062 595.957031 141.738281 581.144531 C 139.699219 548.1875 156.675781 527.015625 184.664062 514.917969 C 216.667969 501.09375 249.5 489.089844 282.582031 478.132812 C 310.789062 468.753906 319.523438 472.949219 336.992188 497.421875 C 352.019531 518.5 367.171875 539.515625 384.453125 563.617188 " fill-opacity="1" fill-rule="nonzero"/></g><path fill="#f4f5f7" d="M 501.011719 289.023438 C 497.988281 327.84375 485.738281 377.4375 445.03125 415.640625 C 410.53125 448.015625 357.882812 448.816406 323.9375 415.671875 C 276.90625 369.722656 262.0625 311.304688 269.34375 248.226562 C 273.140625 215.234375 293.261719 189.25 327.054688 178.203125 C 377.292969 161.753906 425.960938 160.121094 470.183594 195.269531 C 496.011719 215.761719 501.90625 243.90625 501.011719 289.023438 " fill-opacity="1" fill-rule="nonzero"/></svg>