<svg xmlns="http://www.w3.org/2000/svg" xmlns:xlink="http://www.w3.org/1999/xlink" width="1024" zoomAndPan="magnify" viewBox="0 0 768 767.999994" height="1024" preserveAspectRatio="xMidYMid meet" version="1.0"><defs><clipPath id="9cd6eb1b89"><path d="M 201 583 L 567 583 L 567 669.4375 L 201 669.4375 Z M 201 583 " clip-rule="nonzero"/></clipPath><clipPath id="ce0bc3ff3f"><path d="M 76.800781 242 L 691.050781 242 L 691.050781 594 L 76.800781 594 Z M 76.800781 242 " clip-rule="nonzero"/></clipPath><clipPath id="38697c1967"><path d="M 232 98.6875 L 536 98.6875 L 536 402 L 232 402 Z M 232 98.6875 " clip-rule="nonzero"/></clipPath></defs><rect x="-76.8" width="921.6" fill="#ffffff" y="-76.799999" height="921.599993" fill-opacity="1"/><rect x="-76.8" width="921.6" fill="#ffffff" y="-76.799999" height="921.599993" fill-opacity="1"/><g clip-path="url(#9cd6eb1b89)"><path fill="#f4f5f7" d="M 556.117188 648.964844 L 460.234375 648.964844 L 460.234375 583.613281 L 307.753906 583.613281 L 307.753906 648.964844 L 211.875 648.964844 C 206.257812 648.964844 201.691406 653.519531 201.691406 659.152344 C 201.691406 664.765625 206.246094 669.335938 211.875 669.335938 L 556.117188 669.335938 C 561.730469 669.335938 566.300781 664.78125 566.300781 659.152344 C 566.300781 653.519531 561.746094 648.964844 556.117188 648.964844 Z M 556.117188 648.964844 " fill-opacity="1" fill-rule="nonzero"/></g><g clip-path="url(#ce0bc3ff3f)"><path fill="#f4f5f7" d="M 628.363281 242.046875 L 559.160156 242.046875 L 559.160156 262.402344 L 628.363281 262.402344 C 651.714844 262.402344 670.699219 281.390625 670.699219 304.738281 L 670.699219 531.082031 C 670.699219 554.429688 651.714844 573.417969 628.363281 573.417969 L 139.625 573.417969 C 116.277344 573.417969 97.289062 554.429688 97.289062 531.082031 L 97.289062 304.738281 C 97.289062 281.390625 116.277344 262.402344 139.625 262.402344 L 208.828125 262.402344 L 208.828125 242.046875 L 139.625 242.046875 C 105.054688 242.046875 76.933594 270.167969 76.933594 304.738281 L 76.933594 531.082031 C 76.933594 565.652344 105.054688 593.773438 139.625 593.773438 L 628.363281 593.773438 C 662.933594 593.773438 691.054688 565.652344 691.054688 531.082031 L 691.054688 304.738281 C 691.054688 270.167969 662.933594 242.046875 628.363281 242.046875 Z M 628.363281 242.046875 " fill-opacity="1" fill-rule="nonzero"/></g><g clip-path="url(#38697c1967)"><path fill="#f4f5f7" d="M 522.121094 218.519531 L 502.710938 218.519531 C 502.6875 218.378906 502.648438 218.277344 502.597656 218.132812 C 502.570312 218.046875 502.546875 217.929688 502.507812 217.816406 C 502.277344 216.90625 502.007812 216.011719 501.738281 215.101562 C 501.535156 214.425781 501.332031 213.71875 501.101562 213.015625 C 500.921875 212.402344 500.714844 211.800781 500.539062 211.214844 C 500.421875 210.917969 500.308594 210.597656 500.21875 210.304688 C 499.921875 209.484375 499.65625 208.652344 499.335938 207.859375 C 498.988281 206.914062 498.65625 205.980469 498.273438 205.058594 C 497.914062 204.113281 497.53125 203.203125 497.148438 202.28125 C 496.761719 201.347656 496.355469 200.453125 495.945312 199.542969 C 495.597656 198.777344 495.242188 198.007812 494.882812 197.253906 C 494.410156 196.21875 493.910156 195.195312 493.371094 194.183594 C 492.9375 193.351562 492.515625 192.535156 492.082031 191.714844 C 492.03125 191.597656 491.964844 191.472656 491.875 191.332031 C 491.441406 190.589844 491.042969 189.820312 490.609375 189.066406 C 490.496094 188.863281 490.378906 188.65625 490.25 188.453125 L 503.980469 174.722656 C 509.160156 169.542969 509.160156 161.125 503.980469 155.941406 L 478.121094 130.085938 C 477.941406 129.90625 477.765625 129.726562 477.558594 129.585938 C 472.351562 124.902344 464.34375 125.082031 459.351562 130.085938 L 445.625 143.8125 C 445.421875 143.671875 445.214844 143.570312 445.011719 143.453125 C 444.269531 143.019531 443.5 142.625 442.746094 142.1875 C 442.605469 142.097656 442.476562 142.035156 442.363281 141.984375 C 441.542969 141.546875 440.738281 141.125 439.894531 140.691406 C 438.871094 140.152344 437.859375 139.65625 436.824219 139.183594 C 436.082031 138.824219 435.3125 138.453125 434.53125 138.121094 C 433.625 137.710938 432.726562 137.300781 431.792969 136.917969 C 430.859375 136.535156 429.964844 136.148438 429.019531 135.792969 C 428.085938 135.40625 427.164062 135.0625 426.214844 134.730469 C 425.421875 134.410156 424.589844 134.140625 423.773438 133.847656 C 423.476562 133.757812 423.160156 133.640625 422.863281 133.527344 C 422.277344 133.347656 421.660156 133.144531 421.058594 132.964844 C 420.355469 132.734375 419.652344 132.527344 418.972656 132.324219 C 418.066406 132.054688 417.171875 131.785156 416.261719 131.554688 C 416.171875 131.53125 416.082031 131.503906 416.019531 131.492188 C 415.992188 131.464844 415.96875 131.464844 415.957031 131.464844 C 415.816406 131.414062 415.710938 131.378906 415.570312 131.351562 L 415.570312 111.957031 C 415.570312 108.78125 414.445312 105.851562 412.589844 103.589844 C 410.171875 100.582031 406.460938 98.675781 402.292969 98.675781 L 365.738281 98.675781 C 361.578125 98.675781 357.871094 100.582031 355.4375 103.589844 C 353.582031 105.851562 352.457031 108.796875 352.457031 111.957031 L 352.457031 131.363281 C 352.316406 131.390625 352.214844 131.429688 352.074219 131.480469 C 351.984375 131.503906 351.867188 131.53125 351.753906 131.570312 C 350.84375 131.800781 349.949219 132.066406 349.042969 132.335938 C 348.363281 132.542969 347.660156 132.746094 346.957031 132.976562 C 346.34375 133.15625 345.742188 133.359375 345.152344 133.539062 C 344.859375 133.65625 344.539062 133.769531 344.242188 133.859375 C 343.425781 134.152344 342.59375 134.421875 341.800781 134.742188 C 340.851562 135.085938 339.917969 135.421875 339 135.804688 C 338.050781 136.164062 337.144531 136.546875 336.222656 136.929688 C 335.300781 137.3125 334.390625 137.722656 333.484375 138.132812 C 332.714844 138.476562 331.949219 138.835938 331.195312 139.195312 C 330.15625 139.667969 329.132812 140.167969 328.125 140.703125 C 327.292969 141.140625 326.472656 141.5625 325.652344 141.996094 C 325.539062 142.046875 325.410156 142.113281 325.269531 142.199219 C 324.527344 142.636719 323.761719 143.03125 323.003906 143.46875 C 322.800781 143.582031 322.597656 143.699219 322.390625 143.824219 L 308.636719 130.097656 C 303.636719 125.09375 295.625 124.917969 290.429688 129.597656 C 290.226562 129.738281 290.046875 129.917969 289.867188 130.097656 L 264.011719 155.953125 C 258.828125 161.136719 258.828125 169.554688 264.011719 174.738281 L 277.738281 188.464844 C 277.597656 188.667969 277.496094 188.875 277.382812 189.078125 C 276.945312 189.820312 276.550781 190.589844 276.113281 191.34375 C 276.023438 191.484375 275.960938 191.613281 275.910156 191.726562 C 275.476562 192.546875 275.050781 193.351562 274.617188 194.195312 C 274.082031 195.21875 273.582031 196.230469 273.109375 197.265625 C 272.75 198.007812 272.378906 198.777344 272.046875 199.558594 C 271.636719 200.464844 271.226562 201.363281 270.84375 202.296875 C 270.460938 203.214844 270.074219 204.125 269.71875 205.070312 C 269.332031 205.992188 268.988281 206.925781 268.65625 207.875 C 268.335938 208.667969 268.066406 209.5 267.773438 210.316406 C 267.683594 210.613281 267.566406 210.929688 267.453125 211.226562 C 267.273438 211.8125 267.070312 212.429688 266.890625 213.03125 C 266.660156 213.734375 266.453125 214.4375 266.25 215.117188 C 265.980469 216.023438 265.714844 216.917969 265.484375 217.828125 C 265.429688 217.941406 265.417969 218.058594 265.394531 218.148438 C 265.34375 218.289062 265.304688 218.390625 265.277344 218.53125 L 245.871094 218.53125 C 238.539062 218.53125 232.589844 224.480469 232.589844 231.8125 L 232.589844 268.363281 C 232.589844 275.695312 238.539062 281.644531 245.871094 281.644531 L 265.277344 281.644531 C 265.304688 281.785156 265.34375 281.886719 265.394531 282.027344 C 265.417969 282.117188 265.445312 282.234375 265.484375 282.347656 C 265.714844 283.257812 265.980469 284.152344 266.25 285.0625 C 266.453125 285.738281 266.660156 286.441406 266.890625 287.148438 C 267.070312 287.761719 267.273438 288.363281 267.453125 288.949219 C 267.566406 289.246094 267.683594 289.566406 267.773438 289.859375 C 268.066406 290.679688 268.335938 291.507812 268.65625 292.300781 C 269 293.25 269.332031 294.183594 269.71875 295.105469 C 270.074219 296.050781 270.460938 296.960938 270.84375 297.882812 C 271.226562 298.816406 271.636719 299.710938 272.046875 300.617188 C 272.390625 301.386719 272.75 302.152344 273.109375 302.910156 C 273.582031 303.945312 274.082031 304.96875 274.617188 305.980469 C 275.050781 306.8125 275.476562 307.628906 275.910156 308.449219 C 275.960938 308.5625 276.023438 308.691406 276.113281 308.832031 C 276.550781 309.574219 276.945312 310.34375 277.382812 311.097656 C 277.496094 311.300781 277.613281 311.507812 277.738281 311.710938 L 264.011719 325.441406 C 258.828125 330.621094 258.828125 339.039062 264.011719 344.222656 L 289.867188 370.078125 C 295.050781 375.261719 303.46875 375.261719 308.648438 370.078125 L 322.378906 356.351562 C 322.582031 356.492188 322.789062 356.59375 322.992188 356.707031 C 323.734375 357.144531 324.503906 357.539062 325.257812 357.976562 C 325.398438 358.066406 325.527344 358.128906 325.640625 358.179688 C 326.460938 358.613281 327.265625 359.039062 328.109375 359.472656 C 329.132812 360.007812 330.144531 360.507812 331.179688 360.980469 C 331.921875 361.339844 332.691406 361.710938 333.472656 362.042969 C 334.378906 362.453125 335.273438 362.863281 336.207031 363.246094 C 337.144531 363.628906 338.039062 364.015625 338.984375 364.371094 C 339.917969 364.757812 340.839844 365.101562 341.789062 365.433594 C 342.582031 365.753906 343.410156 366.023438 344.230469 366.316406 C 344.523438 366.40625 344.84375 366.523438 345.140625 366.636719 C 345.726562 366.816406 346.34375 367.019531 346.941406 367.199219 C 347.648438 367.429688 348.351562 367.636719 349.027344 367.839844 C 349.9375 368.109375 350.832031 368.375 351.742188 368.605469 C 351.855469 368.660156 351.972656 368.671875 352.0625 368.695312 C 352.203125 368.746094 352.304688 368.785156 352.445312 368.8125 L 352.445312 388.222656 C 352.445312 395.550781 358.394531 401.5 365.726562 401.5 L 402.277344 401.5 C 409.609375 401.5 415.558594 395.550781 415.558594 388.222656 L 415.558594 368.8125 C 415.699219 368.785156 415.800781 368.746094 415.941406 368.695312 C 416.03125 368.671875 416.148438 368.644531 416.261719 368.605469 C 417.171875 368.375 418.066406 368.109375 418.972656 367.839844 C 419.652344 367.636719 420.355469 367.429688 421.058594 367.199219 C 421.675781 367.019531 422.277344 366.816406 422.863281 366.636719 C 423.160156 366.523438 423.476562 366.40625 423.773438 366.316406 C 424.589844 366.023438 425.421875 365.753906 426.214844 365.433594 C 427.164062 365.089844 428.097656 364.757812 429.019531 364.371094 C 429.964844 364.015625 430.875 363.628906 431.792969 363.246094 C 432.714844 362.863281 433.625 362.453125 434.53125 362.042969 C 435.300781 361.699219 436.066406 361.339844 436.824219 360.980469 C 437.859375 360.507812 438.882812 360.007812 439.894531 359.472656 C 440.726562 359.039062 441.542969 358.613281 442.363281 358.179688 C 442.476562 358.128906 442.605469 358.066406 442.746094 357.976562 C 443.488281 357.539062 444.257812 357.144531 445.011719 356.707031 C 445.214844 356.59375 445.421875 356.476562 445.625 356.351562 L 459.351562 370.078125 C 464.535156 375.261719 472.953125 375.261719 478.136719 370.078125 L 503.992188 344.222656 C 509.171875 339.039062 509.171875 330.621094 503.992188 325.441406 L 490.265625 311.710938 C 490.40625 311.507812 490.507812 311.300781 490.621094 311.097656 C 491.058594 310.355469 491.453125 309.585938 491.890625 308.832031 C 491.976562 308.691406 492.042969 308.5625 492.09375 308.449219 C 492.527344 307.628906 492.949219 306.824219 493.386719 305.980469 C 493.921875 304.957031 494.421875 303.945312 494.894531 302.910156 C 495.253906 302.167969 495.625 301.398438 495.957031 300.617188 C 496.367188 299.710938 496.777344 298.816406 497.160156 297.882812 C 497.542969 296.960938 497.925781 296.050781 498.285156 295.105469 C 498.667969 294.183594 499.015625 293.25 499.347656 292.300781 C 499.667969 291.507812 499.9375 290.679688 500.230469 289.859375 C 500.320312 289.566406 500.433594 289.246094 500.550781 288.949219 C 500.730469 288.363281 500.933594 287.746094 501.113281 287.148438 C 501.34375 286.441406 501.546875 285.738281 501.753906 285.0625 C 502.023438 284.152344 502.289062 283.257812 502.519531 282.347656 C 502.570312 282.234375 502.585938 282.117188 502.609375 282.027344 C 502.660156 281.886719 502.699219 281.785156 502.726562 281.644531 L 522.132812 281.644531 C 529.464844 281.644531 535.414062 275.695312 535.414062 268.363281 L 535.414062 231.8125 C 535.402344 224.46875 529.453125 218.519531 522.121094 218.519531 Z M 449.21875 313.347656 C 448.695312 313.886719 448.15625 314.4375 447.609375 314.972656 C 446.40625 316.152344 445.214844 317.277344 443.960938 318.339844 C 443.488281 318.773438 442.988281 319.195312 442.492188 319.605469 C 436.425781 324.722656 429.761719 328.996094 422.632812 332.335938 C 422.070312 332.605469 421.480469 332.871094 420.917969 333.101562 C 419.859375 333.601562 418.769531 334.050781 417.707031 334.460938 C 417.03125 334.753906 416.328125 334.996094 415.621094 335.277344 C 414.585938 335.664062 413.523438 336.019531 412.476562 336.367188 C 411.746094 336.609375 411.054688 336.839844 410.324219 337.042969 C 409.621094 337.273438 408.917969 337.480469 408.226562 337.65625 C 407.871094 337.773438 407.523438 337.863281 407.164062 337.953125 C 406.847656 338.042969 406.527344 338.105469 406.21875 338.183594 C 415.378906 329.175781 422.824219 314.707031 427.574219 296.742188 C 437.550781 298.570312 447.429688 301.015625 457.050781 304.097656 C 456.984375 304.214844 456.898438 304.328125 456.820312 304.417969 C 456.757812 304.535156 456.667969 304.648438 456.578125 304.765625 C 456.015625 305.53125 455.425781 306.273438 454.835938 307.003906 C 453.621094 308.539062 452.355469 310.011719 451.035156 311.441406 C 450.433594 312.082031 449.820312 312.722656 449.21875 313.347656 Z M 383.996094 340.957031 C 383.636719 340.957031 383.292969 340.957031 382.933594 340.933594 C 382.753906 340.90625 382.574219 340.90625 382.394531 340.882812 C 374.949219 340.242188 367.9375 335.136719 361.925781 326.808594 C 356.21875 318.914062 351.410156 308.140625 347.96875 295.5 C 363.398438 293.171875 379.210938 292.378906 394.933594 293.082031 C 401.742188 293.378906 408.546875 293.964844 415.289062 294.847656 C 416.875 295.027344 418.460938 295.257812 420.035156 295.5 C 412.859375 321.804688 399.769531 340.0625 385.058594 340.921875 C 384.699219 340.957031 384.355469 340.957031 383.996094 340.957031 Z M 320.765625 315.34375 C 320.089844 314.707031 319.4375 314.027344 318.769531 313.347656 C 318.117188 312.671875 317.453125 311.992188 316.851562 311.289062 C 316.289062 310.699219 315.765625 310.113281 315.238281 309.496094 C 314.535156 308.679688 313.832031 307.847656 313.152344 306.992188 C 312.566406 306.261719 311.976562 305.519531 311.414062 304.75 C 311.261719 304.519531 311.09375 304.316406 310.941406 304.097656 C 320.574219 301.027344 330.4375 298.585938 340.417969 296.742188 C 343.605469 308.820312 348.042969 319.335938 353.378906 327.691406 C 355.964844 331.722656 358.789062 335.253906 361.773438 338.183594 C 361.453125 338.117188 361.132812 338.042969 360.824219 337.953125 C 360.464844 337.863281 360.121094 337.773438 359.761719 337.65625 C 359.058594 337.480469 358.355469 337.273438 357.664062 337.042969 C 356.9375 336.839844 356.246094 336.609375 355.515625 336.367188 C 354.480469 336.019531 353.417969 335.664062 352.367188 335.277344 C 351.664062 335.007812 350.960938 334.753906 350.28125 334.460938 C 349.21875 334.050781 348.132812 333.601562 347.070312 333.101562 C 346.507812 332.871094 345.917969 332.605469 345.355469 332.335938 C 342.414062 330.953125 339.523438 329.394531 336.722656 327.679688 C 332.511719 325.121094 328.507812 322.203125 324.757812 318.964844 C 324.105469 318.402344 323.441406 317.839844 322.8125 317.25 C 322.121094 316.664062 321.445312 315.996094 320.765625 315.34375 Z M 297.085938 276.640625 C 294.820312 269.273438 293.515625 261.597656 293.21875 253.816406 L 334.75 253.816406 C 334.980469 266.535156 336.363281 278.5625 338.703125 289.511719 C 327.828125 291.507812 317.03125 294.246094 306.601562 297.675781 C 302.507812 291.074219 299.324219 283.988281 297.085938 276.640625 Z M 316.851562 188.863281 C 317.492188 188.15625 318.117188 187.480469 318.769531 186.800781 C 319.421875 186.125 320.089844 185.472656 320.765625 184.804688 C 321.445312 184.152344 322.121094 183.488281 322.800781 182.886719 C 323.441406 182.296875 324.09375 181.734375 324.746094 181.171875 C 331.015625 175.761719 337.9375 171.28125 345.355469 167.800781 C 345.917969 167.535156 346.507812 167.265625 347.070312 167.035156 C 348.132812 166.535156 349.21875 166.089844 350.28125 165.679688 C 350.960938 165.382812 351.664062 165.140625 352.367188 164.859375 C 353.40625 164.476562 354.464844 164.117188 355.515625 163.773438 C 356.246094 163.527344 356.9375 163.296875 357.664062 163.09375 C 358.367188 162.863281 359.070312 162.660156 359.761719 162.480469 C 360.121094 162.363281 360.464844 162.273438 360.824219 162.1875 C 361.144531 162.097656 361.464844 162.03125 361.773438 161.957031 C 352.609375 170.960938 345.164062 185.433594 340.417969 203.394531 C 330.4375 201.566406 320.574219 199.121094 310.941406 196.039062 C 311.09375 195.808594 311.261719 195.605469 311.414062 195.386719 C 311.976562 194.617188 312.566406 193.875 313.152344 193.148438 C 313.832031 192.289062 314.535156 191.445312 315.238281 190.640625 C 315.789062 190.039062 316.3125 189.449219 316.851562 188.863281 Z M 407.164062 162.199219 C 407.523438 162.289062 407.871094 162.378906 408.226562 162.492188 C 408.929688 162.671875 409.636719 162.875 410.324219 163.105469 C 411.054688 163.3125 411.746094 163.542969 412.476562 163.785156 C 413.652344 164.167969 414.828125 164.578125 416.007812 165.027344 C 416.570312 165.230469 417.132812 165.460938 417.707031 165.679688 C 418.769531 166.085938 419.855469 166.535156 420.917969 167.035156 C 421.480469 167.265625 422.070312 167.535156 422.632812 167.800781 C 429.761719 171.15625 436.4375 175.425781 442.492188 180.53125 C 442.988281 180.941406 443.488281 181.363281 443.960938 181.800781 C 445.203125 182.859375 446.40625 184 447.609375 185.164062 C 448.144531 185.703125 448.695312 186.25 449.21875 186.789062 C 449.835938 187.429688 450.433594 188.054688 451.023438 188.707031 C 452.34375 190.128906 453.609375 191.597656 454.824219 193.148438 C 455.414062 193.875 456 194.617188 456.5625 195.386719 C 456.652344 195.5 456.742188 195.617188 456.808594 195.730469 C 456.871094 195.820312 456.960938 195.9375 457.039062 196.050781 C 447.429688 199.121094 437.539062 201.566406 427.558594 203.410156 C 424.640625 192.394531 420.703125 182.667969 415.992188 174.722656 C 413.023438 169.722656 409.75 165.421875 406.191406 161.96875 C 406.527344 162.03125 406.847656 162.109375 407.164062 162.199219 Z M 342.183594 246.347656 C 342.414062 234.152344 343.835938 222.496094 346.164062 211.917969 C 358.597656 213.824219 371.316406 214.796875 383.984375 214.796875 C 387.871094 214.796875 391.734375 214.707031 395.636719 214.5 C 402.445312 214.207031 409.25 213.617188 415.992188 212.734375 C 417.9375 212.492188 419.882812 212.210938 421.800781 211.917969 C 424.128906 222.511719 425.5625 234.152344 425.78125 246.347656 Z M 425.808594 253.816406 C 425.578125 265.984375 424.15625 277.640625 421.828125 288.246094 C 419.882812 287.953125 417.914062 287.683594 415.941406 287.429688 C 409.25 286.546875 402.457031 285.957031 395.652344 285.664062 C 379.09375 284.894531 362.425781 285.753906 346.175781 288.246094 C 343.847656 277.640625 342.414062 265.984375 342.195312 253.816406 Z M 416.007812 192.355469 C 417.503906 196.207031 418.859375 200.3125 420.035156 204.664062 C 418.707031 204.894531 417.351562 205.070312 416.007812 205.226562 C 409.265625 206.132812 402.457031 206.734375 395.652344 207.054688 C 379.695312 207.796875 363.640625 207.003906 347.96875 204.664062 C 355.324219 177.71875 368.871094 159.242188 384.007812 159.242188 C 388.039062 159.242188 391.953125 160.5625 395.664062 162.980469 C 403.660156 168.1875 410.734375 178.613281 416.007812 192.355469 Z M 338.703125 210.648438 C 336.351562 221.601562 334.96875 233.628906 334.75 246.347656 L 293.21875 246.347656 C 293.835938 230.761719 298.441406 215.714844 306.617188 202.488281 C 317.03125 205.917969 327.828125 208.652344 338.703125 210.648438 Z M 429.285156 289.511719 C 431.640625 278.5625 433.023438 266.535156 433.238281 253.816406 L 474.769531 253.816406 C 474.15625 269.402344 469.5625 284.445312 461.375 297.675781 C 450.933594 294.234375 440.160156 291.496094 429.285156 289.511719 Z M 433.238281 246.347656 C 433.011719 233.628906 431.628906 221.601562 429.285156 210.648438 C 440.160156 208.652344 450.933594 205.917969 461.386719 202.488281 C 465.480469 209.113281 468.667969 216.175781 470.933594 223.546875 C 473.171875 230.902344 474.488281 238.566406 474.78125 246.347656 Z M 433.238281 246.347656 " fill-opacity="1" fill-rule="nonzero"/></g><path fill="#f4f5f7" d="M 341.097656 533.820312 C 339.371094 533.820312 337.65625 533.167969 336.335938 531.847656 L 299.695312 495.207031 C 297.070312 492.582031 297.070312 488.324219 299.695312 485.6875 L 335.8125 449.570312 C 338.433594 446.945312 342.695312 446.945312 345.332031 449.570312 C 347.953125 452.191406 347.953125 456.453125 345.332031 459.085938 L 313.972656 490.445312 L 345.855469 522.328125 C 348.480469 524.953125 348.480469 529.210938 345.855469 531.847656 C 344.539062 533.167969 342.824219 533.820312 341.097656 533.820312 Z M 341.097656 533.820312 " fill-opacity="1" fill-rule="nonzero"/><path fill="#f4f5f7" d="M 426.894531 533.820312 C 425.167969 533.820312 423.453125 533.167969 422.136719 531.847656 C 419.511719 529.226562 419.511719 524.964844 422.136719 522.328125 L 454.019531 490.445312 L 422.660156 459.085938 C 420.035156 456.464844 420.035156 452.203125 422.660156 449.570312 C 425.28125 446.945312 429.542969 446.945312 432.179688 449.570312 L 468.296875 485.6875 C 469.5625 486.953125 470.265625 488.65625 470.265625 490.445312 C 470.265625 492.226562 469.5625 493.9375 468.296875 495.207031 L 431.652344 531.847656 C 430.335938 533.167969 428.609375 533.820312 426.894531 533.820312 Z M 426.894531 533.820312 " fill-opacity="1" fill-rule="nonzero"/><path fill="#f4f5f7" d="M 370.332031 536.109375 C 369.5625 536.109375 368.796875 535.980469 368.027344 535.699219 C 364.535156 534.433594 362.730469 530.570312 364.011719 527.074219 L 391.339844 452.023438 C 392.605469 448.53125 396.46875 446.730469 399.960938 448.007812 C 403.457031 449.273438 405.257812 453.136719 403.980469 456.632812 L 376.652344 531.683594 C 375.652344 534.421875 373.082031 536.109375 370.332031 536.109375 Z M 370.332031 536.109375 " fill-opacity="1" fill-rule="nonzero"/><path fill="#f4f5f7" d="M 604.976562 477.304688 L 520.265625 477.304688 C 515.890625 477.304688 512.347656 480.851562 512.347656 485.226562 C 512.347656 489.601562 515.890625 493.144531 520.265625 493.144531 L 604.976562 493.144531 C 609.351562 493.144531 612.894531 489.601562 612.894531 485.226562 C 612.894531 480.851562 609.339844 477.304688 604.976562 477.304688 Z M 604.976562 477.304688 " fill-opacity="1" fill-rule="nonzero"/><path fill="#f4f5f7" d="M 247.722656 477.304688 L 163.015625 477.304688 C 158.636719 477.304688 155.09375 480.851562 155.09375 485.226562 C 155.09375 489.601562 158.636719 493.144531 163.015625 493.144531 L 247.722656 493.144531 C 252.101562 493.144531 255.644531 489.601562 255.644531 485.226562 C 255.644531 480.851562 252.101562 477.304688 247.722656 477.304688 Z M 247.722656 477.304688 " fill-opacity="1" fill-rule="nonzero"/></svg>