<svg xmlns="http://www.w3.org/2000/svg" xmlns:xlink="http://www.w3.org/1999/xlink" width="1024" zoomAndPan="magnify" viewBox="0 0 768 767.999994" height="1024" preserveAspectRatio="xMidYMid meet" version="1.0"><defs><clipPath id="60a296aacd"><path d="M 83.816406 83.816406 L 683.816406 83.816406 L 683.816406 683.816406 L 83.816406 683.816406 Z M 83.816406 83.816406 " clip-rule="nonzero"/></clipPath></defs><rect x="-76.8" width="921.6" fill="#ffffff" y="-76.799999" height="921.599993" fill-opacity="1"/><rect x="-76.8" width="921.6" fill="#ffffff" y="-76.799999" height="921.599993" fill-opacity="1"/><g clip-path="url(#60a296aacd)"><path fill="#f4f5f7" d="M 596.257812 171.738281 C 539.558594 115.039062 464.179688 83.816406 383.996094 83.816406 C 303.816406 83.816406 228.433594 115.039062 171.738281 171.738281 C 115.039062 228.433594 83.816406 303.816406 83.816406 383.996094 C 83.816406 464.179688 115.039062 539.558594 171.738281 596.257812 C 228.433594 652.953125 303.816406 684.179688 383.996094 684.179688 C 464.179688 684.179688 539.558594 652.953125 596.257812 596.257812 C 652.953125 539.558594 684.179688 464.179688 684.179688 383.996094 C 684.179688 303.816406 652.953125 228.433594 596.257812 171.738281 Z M 117.015625 383.996094 C 117.015625 350.566406 123.210938 318.558594 134.484375 289.035156 L 242.460938 289.035156 C 237.617188 319.246094 235.089844 351.230469 235.089844 383.996094 C 235.089844 415.664062 237.441406 446.605469 241.972656 475.917969 L 133.328125 475.917969 C 122.78125 447.246094 117.015625 416.28125 117.015625 383.996094 Z M 268.292969 383.996094 C 268.292969 351.019531 270.96875 318.988281 276.085938 289.035156 L 367.394531 289.035156 L 367.394531 475.917969 L 275.570312 475.917969 C 270.785156 446.84375 268.292969 415.859375 268.292969 383.996094 Z M 462.507812 190.496094 C 471.613281 210.007812 479.160156 232.023438 485.027344 255.835938 L 400.597656 255.835938 L 400.597656 120.09375 C 423.105469 128.347656 445.011719 152.988281 462.507812 190.496094 Z M 367.394531 120.09375 L 367.394531 255.835938 L 282.96875 255.835938 C 288.832031 232.023438 296.382812 210.007812 305.488281 190.496094 C 322.984375 152.988281 344.886719 128.347656 367.394531 120.09375 Z M 367.394531 509.117188 L 367.394531 647.902344 C 344.886719 639.648438 322.984375 615.003906 305.488281 577.5 C 295.996094 557.15625 288.199219 534.097656 282.234375 509.117188 Z M 400.597656 647.902344 L 400.597656 509.117188 L 485.761719 509.117188 C 479.796875 534.097656 472 557.15625 462.507812 577.5 C 445.011719 615.003906 423.105469 639.648438 400.597656 647.902344 Z M 400.597656 475.917969 L 400.597656 289.035156 L 491.910156 289.035156 C 497.027344 318.988281 499.703125 351.019531 499.703125 383.996094 C 499.703125 415.859375 497.207031 446.84375 492.425781 475.917969 Z M 525.535156 289.035156 L 633.507812 289.035156 C 644.78125 318.558594 650.976562 350.566406 650.976562 383.996094 C 650.976562 416.28125 645.214844 447.246094 634.667969 475.917969 L 526.023438 475.917969 C 530.550781 446.605469 532.90625 415.664062 532.90625 383.996094 C 532.90625 351.230469 530.378906 319.246094 525.535156 289.035156 Z M 618.144531 255.835938 L 519.113281 255.835938 C 512.496094 226.84375 503.597656 200.035156 492.597656 176.457031 C 484.066406 158.171875 474.527344 142.414062 464.195312 129.332031 C 530.261719 150.183594 585.304688 196.078125 618.144531 255.835938 Z M 303.796875 129.332031 C 293.464844 142.414062 283.929688 158.171875 275.398438 176.457031 C 264.398438 200.035156 255.5 226.84375 248.882812 255.835938 L 149.851562 255.835938 C 182.691406 196.078125 237.734375 150.183594 303.796875 129.332031 Z M 148.214844 509.117188 L 248.1875 509.117188 C 254.871094 539.28125 264.011719 567.136719 275.398438 591.539062 C 283.929688 609.824219 293.464844 625.582031 303.796875 638.664062 C 236.617188 617.460938 180.839844 570.355469 148.214844 509.117188 Z M 464.195312 638.664062 C 474.527344 625.582031 484.066406 609.824219 492.597656 591.539062 C 503.980469 567.136719 513.125 539.28125 519.808594 509.117188 L 619.78125 509.117188 C 587.152344 570.355469 531.375 617.460938 464.195312 638.664062 Z M 464.195312 638.664062 " fill-opacity="1" fill-rule="nonzero"/></g></svg>